<svg width="126" height="104" viewBox="0 0 126 104" fill="none" xmlns="http://www.w3.org/2000/svg">
<path d="M40.4931 47.1689C37.4286 46.3004 34.3641 45.8597 31.3831 45.8597C26.7798 45.8597 22.9388 46.8952 19.9604 48.1632C22.8318 37.816 29.7295 19.9621 43.4701 17.9515C44.7426 17.7652 45.7854 16.8595 46.1326 15.6403L49.1358 5.06692C49.389 4.17274 49.2389 3.21562 48.7207 2.43964C48.2026 1.66366 47.3699 1.14591 46.4367 1.02001C45.4226 0.883828 44.3889 0.814453 43.3644 0.814453C26.8712 0.814453 10.5372 17.7601 3.64473 42.0235C-0.401242 56.2583 -1.58762 77.6594 8.37851 91.1298C13.9554 98.6673 22.0917 102.692 32.5617 103.094C32.6047 103.096 32.6465 103.097 32.6896 103.097C45.608 103.097 57.0633 94.533 60.548 82.2729C62.6297 74.9435 61.6887 67.2569 57.8959 60.6238C54.1436 54.0653 47.9637 49.2848 40.4931 47.1689Z" fill="#F0F5FB"/>
<path d="M121.36 60.6246C117.608 54.0648 111.428 49.2843 103.957 47.1684C100.892 46.2999 97.828 45.8592 94.8483 45.8592C90.2451 45.8592 86.4027 46.8947 83.4243 48.1628C86.2957 37.8155 93.1934 19.9616 106.935 17.951C108.208 17.7647 109.249 16.859 109.598 15.6398L112.601 5.06643C112.854 4.17225 112.704 3.21513 112.186 2.43915C111.669 1.66317 110.836 1.14543 109.902 1.01952C108.889 0.88334 107.855 0.813965 106.83 0.813965C90.3364 0.813965 74.0024 17.7596 67.1086 42.023C63.064 56.2578 61.8776 77.6589 71.845 91.1319C77.4206 98.6681 85.5583 102.694 96.0269 103.095C96.0699 103.097 96.1117 103.098 96.1561 103.098C109.073 103.098 120.53 94.5338 124.015 82.2737C126.094 74.9443 125.151 67.2564 121.36 60.6246Z" fill="#F0F5FB"/>
</svg>
