<svg width="266" height="67" viewBox="0 0 266 67" fill="none" xmlns="http://www.w3.org/2000/svg">
<path d="M265.191 0.790527H68.491V66.1847H265.191V0.790527Z" fill="white"/>
<path d="M66.1876 0.790527H0.78418V66.1847H66.1876V0.790527Z" fill="white"/>
<path fill-rule="evenodd" clip-rule="evenodd" d="M67.7065 0H266V67H67.7065V0ZM68.6132 0.79056V66.1847H265.314V0.79056H68.6132Z" fill="#8A8A8D"/>
<path fill-rule="evenodd" clip-rule="evenodd" d="M0 0H66.9962V67H0V0ZM0.784155 0.79056V66.1847H66.1631V0.79056H0.784155Z" fill="#8A8A8D"/>
<path fill-rule="evenodd" clip-rule="evenodd" d="M169.206 27.1755V42.4432C169.143 43.0262 169.202 43.6162 169.38 44.1746C169.558 44.733 169.851 45.2473 170.24 45.684C170.628 46.1207 171.103 46.47 171.635 46.7091C172.166 46.9482 172.741 47.0718 173.323 47.0718C173.905 47.0718 174.48 46.9482 175.011 46.7091C175.543 46.47 176.018 46.1207 176.406 45.684C176.795 45.2473 177.087 44.733 177.265 44.1746C177.444 43.6162 177.503 43.0262 177.44 42.4432V27.1755H182.341C182.794 27.2299 183.253 27.1808 183.684 27.0319C184.116 26.883 184.508 26.6382 184.833 26.3155C185.158 25.9928 185.406 25.6005 185.56 25.1677C185.714 24.735 185.77 24.2728 185.722 23.8156C185.722 21.8392 184.693 20.4557 182.071 20.4557H164.526C161.904 20.4557 160.874 21.8145 160.874 23.8156C160.824 24.2669 160.875 24.7239 161.024 25.1527C161.172 25.5816 161.413 25.9716 161.731 26.2939C162.048 26.6162 162.433 26.8627 162.857 27.0153C163.282 27.1679 163.735 27.2226 164.183 27.1755H169.206ZM188.001 42.4432C187.938 43.0262 187.997 43.6162 188.176 44.1746C188.354 44.733 188.646 45.2473 189.035 45.684C189.423 46.1207 189.899 46.47 190.43 46.7091C190.961 46.9482 191.536 47.0718 192.118 47.0718C192.7 47.0718 193.275 46.9482 193.806 46.7091C194.338 46.47 194.813 46.1207 195.201 45.684C195.59 45.2473 195.883 44.733 196.061 44.1746C196.239 43.6162 196.298 43.0262 196.235 42.4432V24.4579C196.298 23.8748 196.239 23.2849 196.061 22.7265C195.883 22.1681 195.59 21.6538 195.201 21.2171C194.813 20.7804 194.338 20.4311 193.806 20.192C193.275 19.9528 192.7 19.8292 192.118 19.8292C191.536 19.8292 190.961 19.9528 190.43 20.192C189.899 20.4311 189.423 20.7804 189.035 21.2171C188.646 21.6538 188.354 22.1681 188.176 22.7265C187.997 23.2849 187.938 23.8748 188.001 24.4579V42.4432ZM210.056 39.9727L221.083 27.6202C221.577 27.1773 221.977 26.6382 222.26 26.0353C222.542 25.4324 222.7 24.7782 222.725 24.112C222.764 23.6111 222.693 23.1076 222.516 22.6375C222.34 22.1675 222.063 21.7426 221.705 21.3932C221.346 21.0438 220.916 20.7786 220.444 20.6165C219.972 20.4544 219.471 20.3995 218.975 20.4557H203.39C200.695 20.4557 199.445 21.7651 199.445 23.6921C199.445 25.619 200.695 26.9284 203.39 26.9284H211.403L201.087 38.4904C199.298 40.4668 198.783 41.4056 198.783 42.789C198.763 43.3115 198.858 43.8319 199.06 44.3134C199.262 44.7948 199.567 45.2254 199.953 45.5745C200.339 45.9237 200.797 46.1827 201.294 46.3332C201.79 46.4837 202.314 46.522 202.827 46.4454H219.294C221.744 46.4454 223.068 45.3337 223.068 43.209C223.068 41.0844 221.769 39.948 219.294 39.948L210.056 39.9727ZM242.819 33.4752C242.819 37.6998 241.177 40.5903 237.722 40.5903C234.266 40.5903 232.625 37.6998 232.625 33.4752C232.625 29.2507 234.266 26.3602 237.722 26.3602C241.177 26.3602 242.819 29.2507 242.819 33.4752ZM224.416 33.4752C224.338 35.287 224.626 37.0957 225.26 38.7925C225.895 40.4893 226.863 42.0391 228.108 43.3486C229.352 44.6581 230.846 45.7001 232.501 46.412C234.155 47.1239 235.935 47.4909 237.734 47.4909C239.533 47.4909 241.313 47.1239 242.967 46.412C244.621 45.7001 246.116 44.6581 247.36 43.3486C248.604 42.0391 249.573 40.4893 250.207 38.7925C250.842 37.0957 251.129 35.287 251.052 33.4752C251.129 31.6635 250.842 29.8548 250.207 28.158C249.573 26.4611 248.604 24.9114 247.36 23.6019C246.116 22.2924 244.621 21.2504 242.967 20.5385C241.313 19.8266 239.533 19.4596 237.734 19.4596C235.935 19.4596 234.155 19.8266 232.501 20.5385C230.846 21.2504 229.352 22.2924 228.108 23.6019C226.863 24.9114 225.895 26.4611 225.26 28.158C224.626 29.8548 224.338 31.6635 224.416 33.4752ZM136.737 42.5667C136.694 43.1237 136.765 43.6837 136.947 44.2115C137.129 44.7393 137.417 45.2235 137.793 45.6337C138.17 46.0439 138.626 46.3712 139.134 46.5951C139.641 46.8189 140.19 46.9345 140.744 46.9345C141.298 46.9345 141.846 46.8189 142.354 46.5951C142.862 46.3712 143.318 46.0439 143.694 45.6337C144.071 45.2235 144.359 44.7393 144.54 44.2115C144.722 43.6837 144.794 43.1237 144.75 42.5667V37.2057H147.985C149.921 37.2057 151.342 37.8233 151.587 39.9233L151.93 43.3325C152.224 45.803 154.087 46.9148 156.488 46.9148C157.396 46.9766 158.291 46.6776 158.983 46.0819C159.674 45.4863 160.107 44.6412 160.188 43.7278C160.148 42.5103 160.025 41.2969 159.821 40.0962L159.527 37.9221C159.159 35.1799 157.37 34.2905 154.773 34.0929C156.257 33.8804 157.612 33.1221 158.575 31.9637C159.539 30.8053 160.043 29.3287 159.992 27.8178C159.992 23.8403 157.174 20.4063 150.852 20.4063H141.785C138.232 20.4063 136.737 21.8886 136.737 25.3473V42.6408V42.5667ZM144.75 31.7706V26.8296H148.867C151.318 26.8296 152.224 27.5954 152.224 29.3001C152.224 31.0047 151.269 31.7706 148.867 31.7706H144.75ZM81.6503 33.4258C81.5241 35.2268 81.7818 37.0342 82.4061 38.7265C83.0303 40.4187 84.0067 41.9566 85.2696 43.2368C86.5324 44.517 88.0524 45.5098 89.7275 46.1484C91.4026 46.7871 93.1939 47.0568 94.981 46.9395C99.5634 46.9395 105.714 44.1725 105.714 39.528C105.703 38.7226 105.434 37.9424 104.946 37.3041C104.459 36.6658 103.78 36.2036 103.01 35.9867C102.241 35.7699 101.423 35.8099 100.678 36.1009C99.9326 36.3918 99.301 36.9181 98.8772 37.601C97.2354 39.8985 96.4267 40.3432 94.981 40.3432C91.5503 40.3432 89.9085 37.4528 89.9085 33.2282C89.9085 29.0036 91.9914 26.1131 94.5644 26.1131C95.384 26.0374 96.2074 26.2112 96.9281 26.6119C97.6488 27.0127 98.2339 27.622 98.6077 28.3613C99.7104 30.2142 100.225 30.5353 101.769 30.5353C102.245 30.5792 102.725 30.5266 103.18 30.3804C103.635 30.2343 104.057 29.9976 104.42 29.6844C104.783 29.3712 105.081 28.9879 105.295 28.557C105.508 28.126 105.634 27.6563 105.665 27.1755C105.665 23.4203 101.083 19.764 94.981 19.764C93.1959 19.6848 91.4142 19.9843 89.7511 20.6431C88.0881 21.3018 86.5807 22.3052 85.3265 23.5882C84.0723 24.8713 83.0993 26.4055 82.4702 28.0916C81.8412 29.7777 81.5702 31.5781 81.6748 33.3764L81.6503 33.4258ZM107.111 33.4258C106.985 35.2268 107.242 37.0342 107.867 38.7265C108.491 40.4187 109.467 41.9566 110.73 43.2368C111.993 44.517 113.513 45.5098 115.188 46.1484C116.863 46.7871 118.654 47.0568 120.441 46.9395C122.236 47.0543 124.035 46.7795 125.716 46.1336C127.396 45.4877 128.92 44.4857 130.183 43.1954C131.447 41.9051 132.421 40.3564 133.04 38.654C133.659 36.9516 133.909 35.135 133.772 33.327C133.849 31.5153 133.562 29.7065 132.927 28.0097C132.293 26.3129 131.324 24.7631 130.08 23.4537C128.836 22.1442 127.341 21.1021 125.687 20.3903C124.033 19.6784 122.252 19.3114 120.454 19.3114C118.655 19.3114 116.875 19.6784 115.221 20.3903C113.566 21.1021 112.072 22.1442 110.828 23.4537C109.583 24.7631 108.615 26.3129 107.98 28.0097C107.346 29.7065 107.058 31.5153 107.135 33.327L107.111 33.4258ZM125.514 33.4258C125.514 37.6504 123.872 40.5409 120.417 40.5409C116.962 40.5409 115.32 37.6504 115.32 33.4258C115.32 29.2013 116.962 26.3108 120.417 26.3108C123.872 26.3108 125.538 29.226 125.538 33.4505L125.514 33.4258Z" fill="#8A8A8D"/>
<path fill-rule="evenodd" clip-rule="evenodd" d="M26.8082 10.9195C31.3171 2.42101 43.9615 9.23959 39.4527 17.7381L19.0646 56.1297C14.5557 64.6282 1.91125 57.8096 6.42014 49.3111L26.8082 10.9195Z" fill="#8A8A8D"/>
<path fill-rule="evenodd" clip-rule="evenodd" d="M47.3924 56.1298L39.2078 40.8127H27.2004L34.895 26.3356H47.8335L60.0859 49.2865C64.5458 57.7851 51.9013 64.6283 47.3924 56.1298Z" fill="#8A8A8D"/>
<path fill-rule="evenodd" clip-rule="evenodd" d="M16.2957 30.6836L17.0799 29.2013C17.7428 28.2704 18.6255 27.5209 19.6481 27.0205C20.6707 26.5201 21.8009 26.2847 22.9365 26.3355H34.8949L27.2004 40.8127H22.9365C21.7353 40.8354 20.5479 40.5518 19.4845 39.9882C18.4211 39.4247 17.5161 38.5994 16.8537 37.5889C16.1912 36.5785 15.7927 35.4157 15.6952 34.2085C15.5976 33.0013 15.8042 31.7888 16.2957 30.6836Z" fill="#3F3D56"/>
</svg>
