<?xml version="1.0" encoding="UTF-8" standalone="no"?>
<!DOCTYPE svg PUBLIC "-//W3C//DTD SVG 1.1//EN" "http://www.w3.org/Graphics/SVG/1.1/DTD/svg11.dtd">
<svg width="100%" height="100%" viewBox="0 0 171 328" version="1.1" xmlns="http://www.w3.org/2000/svg" xmlns:xlink="http://www.w3.org/1999/xlink" xml:space="preserve" xmlns:serif="http://www.serif.com/" style="fill-rule:evenodd;clip-rule:evenodd;stroke-linejoin:round;stroke-miterlimit:10;">
    <g transform="matrix(1,0,0,1,-212.052,-231.58)">
        <text x="210.754px" y="534.195px" style="font-family:'Optima-Regular', 'Optima';font-size:19.072px;">London Architectural</text>
        <text x="265.348px" y="553.747px" style="font-family:'Optima-Regular', 'Optima';font-size:19.072px;">Glazing</text>
    </g>
    <g transform="matrix(1,0,0,1,-212.052,-231.58)">
        <text x="210.754px" y="534.195px" style="font-family:'Optima-Regular', 'Optima';font-size:19.072px;fill:rgb(67,67,67);stroke:black;stroke-width:0.24px;">London Architectural</text>
        <text x="265.348px" y="553.747px" style="font-family:'Optima-Regular', 'Optima';font-size:19.072px;fill:rgb(67,67,67);stroke:black;stroke-width:0.24px;">Glazing</text>
    </g>
    <g transform="matrix(1,0,0,1,-212.052,-266.995)">
        <rect x="212.052" y="352.7" width="5" height="172.015" style="fill:rgb(67,67,67);"/>
    </g>
    <g transform="matrix(1,0,0,1,-212.052,-527.607)">
        <path d="M382.972,613.104C380.27,580.715 364.802,557.03 344.233,542.905C315.21,522.975 275.981,522.107 247.702,542.722C228.92,556.415 214.902,579.598 212.061,613.101C211.944,614.475 212.966,615.686 214.34,615.803C215.715,615.92 216.926,614.898 217.043,613.523C218.605,595.105 223.678,579.951 231.137,567.94C236.533,559.251 243.179,552.207 250.648,546.762C277.235,527.381 314.116,528.289 341.402,547.027C360.872,560.397 375.432,582.861 377.989,613.52C378.104,614.895 379.313,615.918 380.688,615.803C382.063,615.689 383.087,614.479 382.972,613.104Z" style="fill:rgb(67,67,67);"/>
    </g>
    <g transform="matrix(0.999607,-0.0280269,-0.0280269,-0.999607,-199.627,620.912)">
        <path d="M380.482,348.85C380.482,348.85 375.482,348.899 375.486,349.056L380.482,527.25L385.48,527.11L380.482,348.85Z" style="fill:rgb(67,67,67);"/>
    </g>
    <g transform="matrix(1,0,0,1,-212.052,-239.15)">
        <rect x="239.49" y="352.7" width="2" height="144.17" style="fill:rgb(67,67,67);"/>
    </g>
    <g transform="matrix(1,0,0,1,-212.052,-239.912)">
        <rect x="353.161" y="353.081" width="2" height="144.17" style="fill:rgb(0,68,68);"/>
    </g>
    <g transform="matrix(1,0,0,1,-212.052,-266.994)">
        <path d="M379.237,437.707L215.795,437.707C215.244,437.707 214.795,438.155 214.795,438.707C214.795,439.259 215.244,439.707 215.795,439.707L379.237,439.707C379.789,439.707 380.237,439.259 380.237,438.707C380.237,438.155 379.789,437.707 379.237,437.707Z" style="fill:rgb(67,67,67);"/>
    </g>
    <g transform="matrix(1,0,0,1,-212.052,-82.9936)">
        <path d="M259.541,333.28C258.785,333.268 258.151,333.406 257.638,333.697C257.126,333.988 255.886,335.059 253.918,336.911L254.795,337.548C255.954,336.242 256.866,335.62 257.533,335.683C258.2,335.745 258.597,336.679 258.725,338.487L252.09,347.44L250.003,347.407L246.158,350.249L246.406,350.642C248.014,350.369 249.395,350.287 250.548,350.397C248.811,352.967 247.547,354.761 246.756,355.782C245.966,356.801 244.939,357.885 243.679,359.034L243.749,359.581L251.098,359.678L253.695,357.011L247.759,356.879C248.904,356.429 250.739,354.302 253.262,350.498L260.357,350.454L261.736,349.58C261.881,350.089 262.023,350.575 262.16,351.04C263.337,355.019 264.213,357.432 264.788,358.279C265.431,359.224 266.188,359.846 267.06,360.146L269.66,357.83C267.875,356.697 266.145,352.586 264.472,345.494C262.799,338.402 261.751,334.593 261.331,334.067C260.911,333.542 260.314,333.278 259.541,333.28ZM261.255,347.742L254.795,347.62L259.541,340.74L261.255,347.742Z" style="fill:rgb(67,67,67);fill-rule:nonzero;"/>
    </g>
    <g transform="matrix(1,0,0,1,-212.052,-71.0666)">
        <path d="M290.382,340.675C289.792,340.899 289.24,341.149 288.727,341.422C288.214,341.696 287.763,341.989 287.376,342.301C286.988,342.612 286.674,342.945 286.435,343.295C286.194,343.646 286.051,344.014 286.003,344.4C285.951,344.834 286,345.242 286.15,345.622C286.301,346.004 286.54,346.335 286.867,346.619C287.193,346.902 287.609,347.128 288.112,347.297C288.616,347.466 289.195,347.556 289.848,347.566C290.737,347.58 291.601,347.453 292.44,347.184C293.279,346.916 294.09,346.582 294.872,346.183C294.413,345.781 293.977,345.356 293.564,344.906C293.151,344.456 292.758,343.997 292.387,343.528C292.015,343.059 291.665,342.582 291.334,342.098C291.004,341.613 290.687,341.139 290.382,340.675ZM293.03,338.941C293.643,338.732 294.216,338.516 294.75,338.291C295.285,338.066 295.758,337.821 296.168,337.559C296.578,337.295 296.909,337.002 297.163,336.68C297.417,336.357 297.567,336 297.616,335.605C297.663,335.22 297.635,334.875 297.53,334.571C297.426,334.267 297.267,334.007 297.05,333.79C296.834,333.573 296.573,333.406 296.265,333.289C295.958,333.17 295.619,333.108 295.247,333.103C294.831,333.096 294.439,333.166 294.071,333.314C293.703,333.461 293.378,333.656 293.095,333.897C292.812,334.138 292.579,334.408 292.396,334.707C292.213,335.006 292.103,335.305 292.067,335.602C292.008,336.084 292.064,336.617 292.236,337.2C292.407,337.783 292.672,338.363 293.03,338.941ZM302.709,340.181C302.504,340.75 302.276,341.258 302.024,341.705C301.772,342.153 301.485,342.573 301.16,342.967C300.835,343.36 300.468,343.743 300.055,344.115C299.644,344.487 299.181,344.879 298.669,345.289C299.459,345.93 300.218,346.44 300.944,346.817C301.671,347.196 302.361,347.39 303.014,347.4C303.858,347.413 304.593,347.306 305.219,347.079C305.844,346.851 306.373,346.439 306.808,345.841L307.428,346.021C307.218,346.541 306.922,346.999 306.542,347.396C306.161,347.792 305.711,348.126 305.193,348.395C304.676,348.665 304.098,348.866 303.462,348.996C302.825,349.127 302.148,349.187 301.426,349.176C300.503,349.161 299.578,348.959 298.65,348.569C297.721,348.18 296.828,347.665 295.971,347.023C294.793,347.617 293.531,348.094 292.184,348.455C290.837,348.816 289.41,348.986 287.901,348.962C286.843,348.945 285.952,348.846 285.23,348.665C284.508,348.485 283.929,348.237 283.493,347.925C283.057,347.612 282.755,347.241 282.588,346.811C282.421,346.381 282.368,345.909 282.431,345.394C282.52,344.662 282.794,344.016 283.251,343.456C283.708,342.895 284.283,342.395 284.974,341.955C285.665,341.515 286.436,341.126 287.29,340.789C288.143,340.452 289.015,340.141 289.907,339.858C289.521,339.143 289.225,338.485 289.022,337.886C288.819,337.287 288.742,336.782 288.792,336.372C288.857,335.842 289.041,335.329 289.343,334.834C289.646,334.339 290.066,333.903 290.603,333.525C291.139,333.146 291.788,332.847 292.548,332.625C293.308,332.403 294.172,332.3 295.141,332.315C295.861,332.327 296.53,332.412 297.148,332.571C297.765,332.73 298.294,332.955 298.732,333.249C299.17,333.542 299.501,333.897 299.727,334.316C299.952,334.734 300.033,335.205 299.969,335.727C299.906,336.25 299.675,336.705 299.278,337.094C298.881,337.483 298.382,337.829 297.781,338.134C297.18,338.439 296.507,338.714 295.761,338.959C295.014,339.205 294.26,339.447 293.498,339.685C293.986,340.49 294.597,341.292 295.328,342.089C296.06,342.886 296.859,343.669 297.723,344.44C298.947,343.557 299.885,342.738 300.535,341.983C301.185,341.228 301.636,340.567 301.885,339.999L302.709,340.181Z" style="fill:rgb(67,67,67);fill-rule:nonzero;"/>
    </g>
    <g transform="matrix(1,0,0,1,-212.052,-84.7716)">
        <path d="M321.523,335.517C322.04,336.058 322.22,337.126 322.065,338.721C320.325,351.249 319.565,358.002 319.786,358.979C320.006,359.957 320.905,360.752 322.48,361.365L327.519,358.734L327.295,358.184C325.737,358.859 324.918,358.535 324.836,357.209C324.755,355.884 325.152,352.348 326.026,346.603L339.32,346.499L339.838,343.921L328.524,344.036L326.17,345.428L327.01,337.097C327.137,335.263 326.718,334.079 325.754,333.546L321.523,335.517ZM339.255,335.798C339.772,336.339 339.952,337.407 339.796,339.002C338.97,344.948 338.365,349.594 337.981,352.938C337.556,356.639 337.401,358.747 337.517,359.26C337.738,360.238 338.636,361.033 340.212,361.646L345.25,359.015L345.026,358.465C343.468,359.14 342.649,358.816 342.567,357.49C342.486,356.165 343.211,349.461 344.742,337.378C344.868,335.544 344.449,334.36 343.485,333.827L339.255,335.798Z" style="fill:rgb(67,67,67);fill-rule:nonzero;"/>
    </g>
</svg>
