<?xml version="1.0" encoding="UTF-8" standalone="no"?>
<!DOCTYPE svg PUBLIC "-//W3C//DTD SVG 1.1//EN" "http://www.w3.org/Graphics/SVG/1.1/DTD/svg11.dtd">
<svg width="100%" height="100%" viewBox="0 0 3095 1920" version="1.1" xmlns="http://www.w3.org/2000/svg" xmlns:xlink="http://www.w3.org/1999/xlink" xml:space="preserve" xmlns:serif="http://www.serif.com/" style="fill-rule:evenodd;clip-rule:evenodd;stroke-linejoin:round;stroke-miterlimit:2;">
    <g transform="matrix(4.16667,0,0,4.16667,-1230.7,-9437.27)">
        <path d="M464.583,2264.95C456.304,2264.95 449.383,2266.93 443.822,2270.89C438.26,2274.84 424.867,2289.29 403.644,2314.22L413.354,2322.47C425.816,2304.93 435.702,2296.51 443.01,2297.2C450.318,2297.88 454.831,2310.18 456.548,2334.08L385.452,2454.02L362.602,2454.02L320.991,2492.46L323.768,2497.62C341.335,2493.66 356.44,2492.29 369.084,2493.49C350.511,2527.88 336.983,2551.91 328.502,2565.58C320.02,2579.25 308.976,2593.83 295.369,2609.3L296.227,2616.53L376.722,2616.27L404.695,2580.42L339.668,2579.9C352.131,2573.71 371.849,2545.16 398.821,2494.26L476.492,2492.2L491.439,2480.33C493.123,2487.03 494.758,2493.44 496.345,2499.57C509.922,2552.01 519.931,2583.77 526.374,2594.86C533.57,2607.24 541.97,2615.32 551.574,2619.11L579.638,2587.9C559.888,2573.28 540.238,2519.2 520.688,2425.65C501.137,2332.1 489.014,2281.89 484.317,2275.01C479.62,2268.13 473.042,2264.78 464.583,2264.95ZM485.861,2456.09L415.098,2455.83L465.874,2363.74L485.861,2456.09Z" style="fill:rgb(16,55,92);fill-rule:nonzero;"/>
    </g>
    <g transform="matrix(5.03519,0,0,4.16667,-1655.05,-8587.12)">
        <path d="M611.466,2317.56C605.031,2320.65 599.03,2324.06 593.463,2327.8C587.896,2331.53 583.018,2335.5 578.827,2339.72C574.636,2343.93 571.257,2348.38 568.689,2353.08C566.12,2357.77 564.612,2362.68 564.164,2367.8C563.661,2373.56 564.268,2378.94 565.987,2383.96C567.706,2388.97 570.377,2393.32 574.001,2397C577.624,2400.68 582.209,2403.58 587.756,2405.72C593.302,2407.85 599.651,2408.92 606.802,2408.92C616.542,2408.92 625.983,2407.05 635.125,2403.32C644.267,2399.58 653.083,2395 661.573,2389.56C656.482,2384.33 651.635,2378.78 647.032,2372.92C642.428,2367.05 638.052,2361.05 633.904,2354.92C629.755,2348.78 625.832,2342.54 622.133,2336.2C618.435,2329.85 614.879,2323.64 611.466,2317.56ZM640.155,2294.04C646.818,2291.16 653.059,2288.17 658.878,2285.08C664.697,2281.98 669.827,2278.65 674.27,2275.08C678.713,2271.5 682.295,2267.56 685.016,2263.24C687.736,2258.92 689.325,2254.14 689.782,2248.92C690.23,2243.8 689.859,2239.24 688.667,2235.24C687.476,2231.24 685.679,2227.82 683.275,2225C680.872,2222.17 677.978,2220.01 674.595,2218.52C671.212,2217.02 667.486,2216.28 663.418,2216.28C658.856,2216.28 654.575,2217.29 650.576,2219.32C646.576,2221.34 643.047,2223.98 639.989,2227.24C636.93,2230.49 634.424,2234.12 632.471,2238.12C630.519,2242.12 629.37,2246.09 629.024,2250.04C628.464,2256.44 629.174,2263.48 631.153,2271.16C633.132,2278.84 636.132,2286.46 640.155,2294.04ZM746.345,2308.44C744.203,2316.01 741.791,2322.78 739.111,2328.76C736.431,2334.73 733.35,2340.36 729.867,2345.64C726.384,2350.92 722.42,2356.06 717.975,2361.08C713.529,2366.09 708.536,2371.37 702.996,2376.92C711.761,2385.24 720.155,2391.82 728.176,2396.68C736.197,2401.53 743.783,2403.96 750.934,2403.96C760.18,2403.96 768.209,2402.38 775.019,2399.24C781.828,2396.09 787.556,2390.52 792.201,2382.52L799.033,2384.76C796.824,2391.69 793.667,2397.82 789.563,2403.16C785.46,2408.49 780.596,2413 774.972,2416.68C769.349,2420.36 763.065,2423.13 756.12,2425C749.176,2426.86 741.758,2427.8 733.868,2427.8C723.758,2427.8 713.587,2425.32 703.356,2420.36C693.125,2415.4 683.257,2408.76 673.752,2400.44C660.96,2408.54 647.222,2415.13 632.539,2420.2C617.855,2425.26 602.253,2427.8 585.731,2427.8C574.142,2427.8 564.376,2426.68 556.435,2424.44C548.494,2422.2 542.111,2419.05 537.287,2415C532.464,2410.94 529.097,2406.09 527.188,2400.44C525.278,2394.78 524.622,2388.54 525.219,2381.72C526.068,2372.01 528.949,2363.4 533.86,2355.88C538.772,2348.36 544.972,2341.61 552.46,2335.64C559.949,2329.66 568.335,2324.36 577.618,2319.72C586.901,2315.08 596.4,2310.78 606.116,2306.84C601.759,2297.45 598.415,2288.81 596.085,2280.92C593.755,2273.02 592.828,2266.36 593.304,2260.92C593.92,2253.88 595.842,2247.05 599.072,2240.44C602.301,2233.82 606.821,2227.96 612.633,2222.84C618.444,2217.72 625.492,2213.61 633.776,2210.52C642.061,2207.42 651.505,2205.88 662.108,2205.88C669.999,2205.88 677.341,2206.86 684.134,2208.84C690.928,2210.81 696.748,2213.69 701.595,2217.48C706.442,2221.26 710.135,2225.9 712.676,2231.4C715.216,2236.89 716.182,2243.1 715.576,2250.04C714.969,2256.97 712.526,2263.05 708.247,2268.28C703.968,2273.5 698.564,2278.2 692.035,2282.36C685.506,2286.52 678.178,2290.3 670.05,2293.72C661.923,2297.13 653.707,2300.49 645.404,2303.8C650.891,2314.36 657.711,2324.84 665.863,2335.24C674.015,2345.64 682.893,2355.85 692.495,2365.88C705.747,2353.93 715.867,2342.89 722.856,2332.76C729.846,2322.62 734.658,2313.77 737.294,2306.2L746.345,2308.44Z" style="fill:rgb(16,55,92);fill-rule:nonzero;"/>
    </g>
    <g transform="matrix(5.01464,0,0,5.01464,-1804.9,-10425.5)">
        <path d="M779.271,2121.38C783.578,2126.57 785.198,2136.96 784.129,2152.53C771.487,2274.97 766.134,2340.93 768.071,2350.43C770.008,2359.93 777.477,2367.54 790.478,2373.28L831.458,2346.84L829.547,2341.51C816.859,2348.35 810.095,2345.31 809.257,2332.39C808.419,2319.48 811.214,2284.94 817.641,2228.78L926.643,2225.71L930.556,2200.5L837.786,2203.37L818.663,2217.3L824.472,2135.93C825.27,2118.03 821.682,2106.55 813.707,2101.5L779.271,2121.38ZM924.72,2121.38C929.026,2126.57 930.646,2136.96 929.578,2152.53C916.935,2274.97 911.583,2340.93 913.519,2350.43C915.456,2359.93 922.925,2367.54 935.926,2373.28L976.906,2346.84L974.996,2341.51C962.307,2348.35 955.543,2345.31 954.705,2332.39C953.867,2319.48 958.939,2253.99 969.92,2135.93C970.718,2118.03 967.13,2106.55 959.155,2101.5L924.72,2121.38Z" style="fill:rgb(16,55,92);fill-rule:nonzero;"/>
    </g>
    <g transform="matrix(2.59168,-0.0114427,0.00998024,2.26043,-3895.61,-9611.51)">
        <g transform="matrix(4.48176,0,0,4.48176,-5675.24,694.695)">
            <path d="M1628.71,979.661L1628.71,954.565L1634.07,954.565L1634.07,975.64L1648.54,975.64L1648.54,979.661L1628.71,979.661Z" style="fill:rgb(16,55,92);fill-rule:nonzero;"/>
        </g>
        <g transform="matrix(4.48176,0,0,4.48176,-5675.24,693.087)">
            <path d="M1676.08,960.848C1673.93,959.077 1671.29,958.191 1668.14,958.191C1664.99,958.191 1662.34,959.077 1660.18,960.848C1658.02,962.619 1656.93,964.767 1656.93,967.292C1656.93,969.817 1658.02,971.966 1660.18,973.737C1662.34,975.508 1664.99,976.393 1668.14,976.393C1671.29,976.393 1673.94,975.508 1676.1,973.737C1678.27,971.966 1679.35,969.817 1679.35,967.292C1679.35,964.767 1678.26,962.619 1676.08,960.848ZM1680.03,976.573C1676.82,979.038 1672.86,980.271 1668.14,980.271C1663.42,980.271 1659.46,979.032 1656.25,976.555C1653.05,974.078 1651.44,970.99 1651.44,967.292C1651.44,963.594 1653.05,960.507 1656.25,958.03C1659.46,955.552 1663.42,954.314 1668.14,954.314C1672.86,954.314 1676.82,955.552 1680.03,958.03C1683.23,960.507 1684.84,963.594 1684.84,967.292C1684.84,970.99 1683.23,974.084 1680.03,976.573Z" style="fill:rgb(16,55,92);fill-rule:nonzero;"/>
        </g>
        <g transform="matrix(4.48176,0,0,4.48176,-5675.24,694.695)">
            <path d="M1715.37,954.565L1720.73,954.565L1720.73,979.661L1714.92,979.661L1696.95,961.351L1696.95,979.661L1691.6,979.661L1691.6,954.565L1696.95,954.565L1715.37,973.306L1715.37,954.565Z" style="fill:rgb(16,55,92);fill-rule:nonzero;"/>
        </g>
        <g transform="matrix(4.48176,0,0,4.48176,-5675.24,694.695)">
            <path d="M1740.42,954.565C1746.1,954.565 1750.47,955.66 1753.53,957.85C1756.58,960.04 1758.11,963.086 1758.11,966.987C1758.11,970.889 1756.63,973.976 1753.67,976.25C1750.7,978.524 1746.16,979.661 1740.05,979.661L1729.53,979.661L1729.53,954.565L1740.42,954.565ZM1752.71,967.095C1752.71,961.351 1748.55,958.478 1740.24,958.478L1734.88,958.478L1734.88,975.675L1740.83,975.675C1744.67,975.675 1747.61,974.951 1749.65,973.503C1751.69,972.055 1752.71,969.919 1752.71,967.095Z" style="fill:rgb(16,55,92);fill-rule:nonzero;"/>
        </g>
        <g transform="matrix(4.48176,0,0,4.48176,-5675.24,693.087)">
            <path d="M1787.6,960.848C1785.46,959.077 1782.81,958.191 1779.66,958.191C1776.52,958.191 1773.86,959.077 1771.7,960.848C1769.54,962.619 1768.46,964.767 1768.46,967.292C1768.46,969.817 1769.54,971.966 1771.7,973.737C1773.86,975.508 1776.52,976.393 1779.66,976.393C1782.81,976.393 1785.46,975.508 1787.63,973.737C1789.79,971.966 1790.87,969.817 1790.87,967.292C1790.87,964.767 1789.78,962.619 1787.6,960.848ZM1791.55,976.573C1788.34,979.038 1784.38,980.271 1779.66,980.271C1774.94,980.271 1770.98,979.032 1767.78,976.555C1764.57,974.078 1762.97,970.99 1762.97,967.292C1762.97,963.594 1764.57,960.507 1767.78,958.03C1770.98,955.552 1774.94,954.314 1779.66,954.314C1784.38,954.314 1788.34,955.552 1791.55,958.03C1794.76,960.507 1796.36,963.594 1796.36,967.292C1796.36,970.99 1794.76,974.084 1791.55,976.573Z" style="fill:rgb(16,55,92);fill-rule:nonzero;"/>
        </g>
        <g transform="matrix(4.48176,0,0,4.48176,-5675.24,694.695)">
            <path d="M1826.89,954.565L1832.25,954.565L1832.25,979.661L1826.44,979.661L1808.47,961.351L1808.47,979.661L1803.12,979.661L1803.12,954.565L1808.47,954.565L1826.89,973.306L1826.89,954.565Z" style="fill:rgb(16,55,92);fill-rule:nonzero;"/>
        </g>
    </g>
</svg>
