<?xml version="1.0" encoding="UTF-8" standalone="no"?>
<!DOCTYPE svg PUBLIC "-//W3C//DTD SVG 1.1//EN" "http://www.w3.org/Graphics/SVG/1.1/DTD/svg11.dtd">
<svg width="100%" height="100%" viewBox="0 0 254 98" version="1.1" xmlns="http://www.w3.org/2000/svg" xmlns:xlink="http://www.w3.org/1999/xlink" xml:space="preserve" xmlns:serif="http://www.serif.com/" style="fill-rule:evenodd;clip-rule:evenodd;stroke-linejoin:round;stroke-miterlimit:2;">
    <g transform="matrix(1,0,0,1,-131,-82.2081)">
        <g transform="matrix(1,0,0,1,2.09111,-384.858)">
            <g transform="matrix(19.0723,0,0,19.0723,210.754,534.195)">
                <path d="M0.098,-0.426C0.098,-0.47 0.097,-0.513 0.096,-0.556C0.094,-0.598 0.092,-0.641 0.09,-0.685C0.099,-0.684 0.107,-0.683 0.115,-0.682C0.123,-0.681 0.131,-0.68 0.139,-0.68C0.147,-0.68 0.155,-0.681 0.163,-0.682C0.171,-0.683 0.179,-0.684 0.188,-0.685C0.186,-0.641 0.184,-0.598 0.183,-0.556C0.181,-0.513 0.18,-0.47 0.18,-0.426C0.18,-0.342 0.18,-0.269 0.181,-0.208C0.182,-0.146 0.182,-0.091 0.183,-0.042C0.23,-0.042 0.276,-0.043 0.319,-0.044C0.362,-0.045 0.409,-0.048 0.459,-0.055C0.456,-0.043 0.454,-0.033 0.454,-0.025C0.454,-0.018 0.456,-0.009 0.459,0.002C0.428,0.001 0.398,-0 0.367,-0L0.183,-0C0.153,-0 0.122,0.001 0.09,0.002C0.092,-0.039 0.094,-0.081 0.096,-0.124C0.097,-0.167 0.098,-0.21 0.098,-0.254L0.098,-0.426Z" style="fill:white;fill-rule:nonzero;"/>
            </g>
            <g transform="matrix(19.0723,0,0,19.0723,220.288,534.195)">
                <path d="M0.123,-0.234C0.123,-0.206 0.126,-0.179 0.131,-0.153C0.136,-0.127 0.144,-0.104 0.156,-0.084C0.168,-0.063 0.184,-0.047 0.204,-0.035C0.224,-0.023 0.249,-0.017 0.278,-0.017C0.307,-0.017 0.332,-0.023 0.352,-0.035C0.372,-0.047 0.388,-0.063 0.4,-0.084C0.412,-0.104 0.42,-0.127 0.426,-0.153C0.431,-0.179 0.433,-0.206 0.433,-0.234C0.433,-0.262 0.431,-0.289 0.426,-0.315C0.42,-0.341 0.412,-0.364 0.4,-0.385C0.388,-0.405 0.372,-0.421 0.352,-0.433C0.332,-0.445 0.307,-0.451 0.278,-0.451C0.249,-0.451 0.224,-0.445 0.204,-0.433C0.184,-0.421 0.168,-0.405 0.156,-0.385C0.144,-0.364 0.136,-0.341 0.131,-0.315C0.126,-0.289 0.123,-0.262 0.123,-0.234ZM0.035,-0.234C0.035,-0.279 0.042,-0.318 0.057,-0.35C0.071,-0.381 0.09,-0.407 0.113,-0.427C0.136,-0.446 0.163,-0.46 0.192,-0.47C0.221,-0.478 0.249,-0.483 0.278,-0.483C0.307,-0.483 0.336,-0.478 0.365,-0.47C0.394,-0.46 0.42,-0.446 0.443,-0.427C0.466,-0.407 0.485,-0.381 0.5,-0.35C0.514,-0.318 0.521,-0.279 0.521,-0.234C0.521,-0.189 0.514,-0.15 0.5,-0.119C0.485,-0.087 0.466,-0.061 0.443,-0.042C0.42,-0.022 0.394,-0.008 0.365,-0C0.336,0.008 0.307,0.012 0.278,0.012C0.249,0.012 0.221,0.008 0.192,-0C0.163,-0.008 0.136,-0.022 0.113,-0.042C0.09,-0.061 0.071,-0.087 0.057,-0.119C0.042,-0.15 0.035,-0.189 0.035,-0.234Z" style="fill:white;fill-rule:nonzero;"/>
            </g>
            <g transform="matrix(19.0723,0,0,19.0723,230.891,534.195)">
                <path d="M0.402,-0.279C0.402,-0.329 0.392,-0.367 0.373,-0.393C0.354,-0.418 0.327,-0.431 0.293,-0.431C0.246,-0.431 0.212,-0.417 0.191,-0.388C0.169,-0.359 0.158,-0.319 0.158,-0.267L0.158,-0.182C0.158,-0.152 0.159,-0.121 0.16,-0.088C0.161,-0.055 0.163,-0.025 0.166,0.002C0.151,0.001 0.136,-0 0.121,-0C0.106,-0 0.091,0.001 0.076,0.002C0.079,-0.025 0.082,-0.055 0.083,-0.088C0.084,-0.121 0.084,-0.152 0.084,-0.182L0.084,-0.286C0.084,-0.316 0.084,-0.347 0.083,-0.381C0.082,-0.413 0.079,-0.444 0.076,-0.473C0.095,-0.47 0.11,-0.468 0.121,-0.468C0.126,-0.468 0.132,-0.468 0.139,-0.47C0.145,-0.471 0.152,-0.472 0.161,-0.473C0.159,-0.446 0.158,-0.42 0.158,-0.393L0.16,-0.393C0.179,-0.422 0.201,-0.444 0.227,-0.46C0.253,-0.475 0.284,-0.483 0.32,-0.483C0.339,-0.483 0.358,-0.48 0.377,-0.475C0.396,-0.47 0.413,-0.46 0.428,-0.448C0.443,-0.435 0.456,-0.417 0.466,-0.395C0.475,-0.372 0.48,-0.344 0.48,-0.309C0.48,-0.28 0.479,-0.251 0.478,-0.221C0.477,-0.19 0.476,-0.158 0.476,-0.124L0.476,-0.059C0.476,-0.048 0.476,-0.038 0.477,-0.028C0.477,-0.017 0.477,-0.007 0.478,0.002C0.465,0.001 0.451,-0 0.436,-0C0.422,-0 0.408,0.001 0.395,0.002C0.396,-0.033 0.398,-0.068 0.4,-0.105C0.401,-0.142 0.402,-0.179 0.402,-0.218L0.402,-0.279Z" style="fill:white;fill-rule:nonzero;"/>
            </g>
            <g transform="matrix(19.0723,0,0,19.0723,241.493,534.195)">
                <path d="M0.13,-0.225C0.13,-0.185 0.134,-0.152 0.143,-0.126C0.151,-0.1 0.162,-0.079 0.175,-0.064C0.188,-0.048 0.202,-0.037 0.219,-0.031C0.236,-0.025 0.252,-0.022 0.268,-0.022C0.294,-0.022 0.316,-0.028 0.335,-0.042C0.354,-0.055 0.369,-0.071 0.382,-0.093C0.394,-0.114 0.403,-0.137 0.409,-0.164C0.414,-0.191 0.417,-0.217 0.417,-0.244C0.417,-0.308 0.405,-0.357 0.38,-0.391C0.355,-0.424 0.319,-0.441 0.271,-0.441C0.247,-0.441 0.226,-0.436 0.209,-0.425C0.191,-0.413 0.176,-0.398 0.165,-0.379C0.153,-0.359 0.144,-0.336 0.139,-0.31C0.133,-0.283 0.13,-0.255 0.13,-0.225ZM0.414,-0.093C0.409,-0.082 0.402,-0.071 0.393,-0.059C0.384,-0.046 0.372,-0.035 0.359,-0.024C0.345,-0.013 0.329,-0.005 0.31,0.002C0.291,0.009 0.27,0.012 0.245,0.012C0.22,0.012 0.195,0.008 0.171,-0.001C0.146,-0.01 0.125,-0.024 0.106,-0.044C0.087,-0.063 0.071,-0.089 0.06,-0.12C0.048,-0.151 0.042,-0.188 0.042,-0.231C0.042,-0.274 0.048,-0.311 0.061,-0.342C0.074,-0.373 0.09,-0.4 0.111,-0.421C0.131,-0.442 0.154,-0.457 0.18,-0.468C0.205,-0.478 0.231,-0.483 0.257,-0.483C0.331,-0.483 0.382,-0.45 0.411,-0.383L0.413,-0.383L0.413,-0.481C0.413,-0.506 0.413,-0.532 0.413,-0.558C0.412,-0.583 0.412,-0.608 0.412,-0.631C0.411,-0.654 0.411,-0.676 0.411,-0.697C0.41,-0.718 0.41,-0.736 0.409,-0.752C0.417,-0.751 0.425,-0.749 0.432,-0.749C0.439,-0.748 0.447,-0.747 0.454,-0.747C0.461,-0.747 0.468,-0.748 0.476,-0.749C0.483,-0.749 0.49,-0.751 0.499,-0.752C0.497,-0.731 0.495,-0.7 0.494,-0.66C0.493,-0.619 0.492,-0.575 0.491,-0.526C0.49,-0.477 0.489,-0.427 0.488,-0.376C0.487,-0.325 0.487,-0.278 0.487,-0.235C0.487,-0.189 0.487,-0.148 0.488,-0.111C0.489,-0.074 0.489,-0.037 0.49,0.002C0.477,0.001 0.464,-0 0.451,-0C0.439,-0 0.426,0.001 0.413,0.002L0.416,-0.093L0.414,-0.093Z" style="fill:white;fill-rule:nonzero;"/>
            </g>
            <g transform="matrix(19.0723,0,0,19.0723,252.096,534.195)">
                <path d="M0.123,-0.234C0.123,-0.206 0.126,-0.179 0.131,-0.153C0.136,-0.127 0.144,-0.104 0.156,-0.084C0.168,-0.063 0.184,-0.047 0.204,-0.035C0.224,-0.023 0.249,-0.017 0.278,-0.017C0.307,-0.017 0.332,-0.023 0.352,-0.035C0.372,-0.047 0.388,-0.063 0.4,-0.084C0.412,-0.104 0.42,-0.127 0.426,-0.153C0.431,-0.179 0.433,-0.206 0.433,-0.234C0.433,-0.262 0.431,-0.289 0.426,-0.315C0.42,-0.341 0.412,-0.364 0.4,-0.385C0.388,-0.405 0.372,-0.421 0.352,-0.433C0.332,-0.445 0.307,-0.451 0.278,-0.451C0.249,-0.451 0.224,-0.445 0.204,-0.433C0.184,-0.421 0.168,-0.405 0.156,-0.385C0.144,-0.364 0.136,-0.341 0.131,-0.315C0.126,-0.289 0.123,-0.262 0.123,-0.234ZM0.035,-0.234C0.035,-0.279 0.042,-0.318 0.057,-0.35C0.071,-0.381 0.09,-0.407 0.113,-0.427C0.136,-0.446 0.163,-0.46 0.192,-0.47C0.221,-0.478 0.249,-0.483 0.278,-0.483C0.307,-0.483 0.336,-0.478 0.365,-0.47C0.394,-0.46 0.42,-0.446 0.443,-0.427C0.466,-0.407 0.485,-0.381 0.5,-0.35C0.514,-0.318 0.521,-0.279 0.521,-0.234C0.521,-0.189 0.514,-0.15 0.5,-0.119C0.485,-0.087 0.466,-0.061 0.443,-0.042C0.42,-0.022 0.394,-0.008 0.365,-0C0.336,0.008 0.307,0.012 0.278,0.012C0.249,0.012 0.221,0.008 0.192,-0C0.163,-0.008 0.136,-0.022 0.113,-0.042C0.09,-0.061 0.071,-0.087 0.057,-0.119C0.042,-0.15 0.035,-0.189 0.035,-0.234Z" style="fill:white;fill-rule:nonzero;"/>
            </g>
            <g transform="matrix(19.0723,0,0,19.0723,262.698,534.195)">
                <path d="M0.402,-0.279C0.402,-0.329 0.392,-0.367 0.373,-0.393C0.354,-0.418 0.327,-0.431 0.293,-0.431C0.246,-0.431 0.212,-0.417 0.191,-0.388C0.169,-0.359 0.158,-0.319 0.158,-0.267L0.158,-0.182C0.158,-0.152 0.159,-0.121 0.16,-0.088C0.161,-0.055 0.163,-0.025 0.166,0.002C0.151,0.001 0.136,-0 0.121,-0C0.106,-0 0.091,0.001 0.076,0.002C0.079,-0.025 0.082,-0.055 0.083,-0.088C0.084,-0.121 0.084,-0.152 0.084,-0.182L0.084,-0.286C0.084,-0.316 0.084,-0.347 0.083,-0.381C0.082,-0.413 0.079,-0.444 0.076,-0.473C0.095,-0.47 0.11,-0.468 0.121,-0.468C0.126,-0.468 0.132,-0.468 0.139,-0.47C0.145,-0.471 0.152,-0.472 0.161,-0.473C0.159,-0.446 0.158,-0.42 0.158,-0.393L0.16,-0.393C0.179,-0.422 0.201,-0.444 0.227,-0.46C0.253,-0.475 0.284,-0.483 0.32,-0.483C0.339,-0.483 0.358,-0.48 0.377,-0.475C0.396,-0.47 0.413,-0.46 0.428,-0.448C0.443,-0.435 0.456,-0.417 0.466,-0.395C0.475,-0.372 0.48,-0.344 0.48,-0.309C0.48,-0.28 0.479,-0.251 0.478,-0.221C0.477,-0.19 0.476,-0.158 0.476,-0.124L0.476,-0.059C0.476,-0.048 0.476,-0.038 0.477,-0.028C0.477,-0.017 0.477,-0.007 0.478,0.002C0.465,0.001 0.451,-0 0.436,-0C0.422,-0 0.408,0.001 0.395,0.002C0.396,-0.033 0.398,-0.068 0.4,-0.105C0.401,-0.142 0.402,-0.179 0.402,-0.218L0.402,-0.279Z" style="fill:white;fill-rule:nonzero;"/>
            </g>
            <g transform="matrix(19.0723,0,0,19.0723,278.602,534.195)">
                <path d="M0.207,-0.309C0.224,-0.309 0.242,-0.309 0.261,-0.308C0.28,-0.307 0.298,-0.307 0.315,-0.307C0.334,-0.307 0.352,-0.307 0.371,-0.308C0.39,-0.308 0.408,-0.308 0.427,-0.309L0.316,-0.563L0.207,-0.309ZM0.65,0.002C0.641,0.001 0.632,-0 0.624,-0L0.571,-0C0.562,-0 0.553,0.001 0.544,0.002C0.539,-0.013 0.533,-0.032 0.525,-0.054C0.517,-0.075 0.508,-0.098 0.499,-0.122C0.489,-0.145 0.479,-0.169 0.469,-0.194C0.459,-0.218 0.45,-0.241 0.441,-0.263C0.42,-0.264 0.398,-0.264 0.376,-0.265C0.354,-0.265 0.332,-0.265 0.31,-0.265C0.289,-0.265 0.269,-0.265 0.249,-0.265C0.229,-0.264 0.209,-0.264 0.188,-0.263C0.167,-0.211 0.147,-0.162 0.13,-0.115C0.113,-0.068 0.1,-0.029 0.091,0.002C0.08,0.001 0.067,-0 0.054,-0C0.041,-0 0.028,0.001 0.017,0.002C0.071,-0.115 0.124,-0.231 0.175,-0.346C0.226,-0.461 0.278,-0.579 0.33,-0.698L0.349,-0.698C0.365,-0.659 0.382,-0.618 0.401,-0.573C0.42,-0.528 0.439,-0.482 0.458,-0.436C0.477,-0.39 0.497,-0.344 0.516,-0.299C0.535,-0.254 0.554,-0.212 0.571,-0.173C0.588,-0.134 0.603,-0.099 0.617,-0.068C0.63,-0.037 0.641,-0.014 0.65,0.002Z" style="fill:white;fill-rule:nonzero;"/>
            </g>
            <g transform="matrix(19.0723,0,0,19.0723,291.322,534.195)">
                <path d="M0.305,-0.391C0.302,-0.395 0.295,-0.399 0.286,-0.402C0.276,-0.405 0.266,-0.407 0.256,-0.407C0.24,-0.407 0.226,-0.403 0.213,-0.396C0.2,-0.389 0.19,-0.379 0.181,-0.367C0.172,-0.354 0.166,-0.339 0.161,-0.323C0.156,-0.306 0.154,-0.287 0.154,-0.268L0.154,-0.158C0.154,-0.113 0.154,-0.079 0.155,-0.056C0.155,-0.032 0.156,-0.013 0.158,0.002C0.145,0.001 0.131,-0 0.118,-0C0.103,-0 0.089,0.001 0.076,0.002C0.078,-0.021 0.079,-0.051 0.08,-0.091C0.08,-0.129 0.08,-0.177 0.08,-0.234L0.08,-0.266C0.08,-0.292 0.08,-0.322 0.08,-0.356C0.079,-0.39 0.078,-0.429 0.076,-0.473C0.083,-0.472 0.09,-0.471 0.097,-0.47C0.104,-0.468 0.111,-0.468 0.118,-0.468C0.124,-0.468 0.13,-0.468 0.137,-0.47C0.144,-0.471 0.151,-0.472 0.158,-0.473C0.155,-0.449 0.154,-0.43 0.154,-0.416C0.153,-0.402 0.153,-0.389 0.153,-0.376L0.155,-0.375C0.194,-0.447 0.238,-0.483 0.287,-0.483C0.293,-0.483 0.298,-0.483 0.303,-0.482C0.307,-0.481 0.312,-0.48 0.319,-0.477C0.316,-0.469 0.314,-0.457 0.313,-0.441C0.312,-0.424 0.312,-0.409 0.312,-0.396L0.305,-0.391Z" style="fill:white;fill-rule:nonzero;"/>
            </g>
            <g transform="matrix(19.0723,0,0,19.0723,297.671,534.195)">
                <path d="M0.042,-0.234C0.042,-0.277 0.049,-0.315 0.064,-0.346C0.079,-0.377 0.098,-0.403 0.122,-0.424C0.145,-0.444 0.172,-0.459 0.203,-0.469C0.234,-0.478 0.265,-0.483 0.297,-0.483C0.334,-0.483 0.367,-0.478 0.396,-0.47C0.425,-0.46 0.445,-0.45 0.458,-0.439C0.453,-0.429 0.449,-0.419 0.446,-0.408C0.442,-0.397 0.439,-0.385 0.436,-0.373L0.428,-0.373C0.423,-0.382 0.417,-0.391 0.409,-0.4C0.401,-0.409 0.392,-0.417 0.381,-0.425C0.37,-0.432 0.357,-0.439 0.344,-0.444C0.331,-0.448 0.316,-0.451 0.3,-0.451C0.27,-0.451 0.244,-0.446 0.223,-0.435C0.201,-0.424 0.183,-0.408 0.17,-0.389C0.156,-0.37 0.146,-0.347 0.14,-0.321C0.133,-0.294 0.13,-0.266 0.13,-0.235C0.13,-0.166 0.145,-0.115 0.174,-0.08C0.203,-0.045 0.246,-0.027 0.303,-0.027C0.316,-0.027 0.33,-0.029 0.344,-0.033C0.358,-0.036 0.372,-0.041 0.385,-0.048C0.398,-0.054 0.411,-0.061 0.423,-0.07C0.434,-0.079 0.444,-0.088 0.453,-0.098L0.458,-0.095C0.455,-0.079 0.453,-0.063 0.452,-0.046C0.432,-0.03 0.407,-0.016 0.378,-0.005C0.348,0.006 0.317,0.012 0.285,0.012C0.256,0.012 0.228,0.008 0.199,-0.001C0.169,-0.009 0.143,-0.023 0.12,-0.043C0.097,-0.062 0.078,-0.088 0.064,-0.119C0.049,-0.15 0.042,-0.189 0.042,-0.234Z" style="fill:white;fill-rule:nonzero;"/>
            </g>
            <g transform="matrix(19.0723,0,0,19.0723,307.205,534.195)">
                <path d="M0.084,-0.464C0.084,-0.487 0.084,-0.511 0.084,-0.538C0.083,-0.565 0.083,-0.591 0.082,-0.617C0.081,-0.643 0.081,-0.668 0.08,-0.692C0.079,-0.715 0.077,-0.735 0.076,-0.752C0.095,-0.749 0.11,-0.747 0.121,-0.747C0.132,-0.747 0.147,-0.749 0.166,-0.752C0.165,-0.735 0.164,-0.715 0.163,-0.692C0.162,-0.669 0.161,-0.644 0.16,-0.619C0.159,-0.593 0.159,-0.567 0.159,-0.541C0.158,-0.515 0.158,-0.491 0.158,-0.469L0.158,-0.393L0.16,-0.393C0.179,-0.422 0.201,-0.444 0.227,-0.46C0.253,-0.475 0.284,-0.483 0.32,-0.483C0.339,-0.483 0.358,-0.48 0.377,-0.475C0.396,-0.47 0.413,-0.46 0.428,-0.448C0.443,-0.435 0.456,-0.417 0.466,-0.395C0.475,-0.372 0.48,-0.344 0.48,-0.309C0.48,-0.28 0.479,-0.251 0.478,-0.221C0.477,-0.19 0.476,-0.158 0.476,-0.124L0.476,-0.059C0.476,-0.048 0.476,-0.038 0.477,-0.028C0.477,-0.017 0.477,-0.007 0.478,0.002C0.465,0.001 0.451,-0 0.436,-0C0.422,-0 0.408,0.001 0.395,0.002C0.396,-0.033 0.398,-0.068 0.4,-0.105C0.401,-0.142 0.402,-0.179 0.402,-0.218L0.402,-0.279C0.402,-0.329 0.392,-0.367 0.373,-0.393C0.354,-0.418 0.327,-0.431 0.293,-0.431C0.246,-0.431 0.212,-0.417 0.191,-0.388C0.169,-0.359 0.158,-0.319 0.158,-0.267C0.158,-0.248 0.158,-0.227 0.159,-0.202C0.159,-0.177 0.159,-0.153 0.16,-0.128C0.161,-0.102 0.162,-0.078 0.163,-0.055C0.164,-0.032 0.165,-0.013 0.166,0.002C0.151,0.001 0.136,-0 0.121,-0C0.106,-0 0.091,0.001 0.076,0.002C0.077,-0.013 0.079,-0.033 0.08,-0.056C0.081,-0.079 0.081,-0.104 0.082,-0.13C0.083,-0.156 0.083,-0.182 0.084,-0.209C0.084,-0.236 0.084,-0.26 0.084,-0.283L0.084,-0.464Z" style="fill:white;fill-rule:nonzero;"/>
            </g>
            <g transform="matrix(19.0723,0,0,19.0723,317.808,534.195)">
                <path d="M0.088,-0.647C0.088,-0.661 0.093,-0.673 0.103,-0.683C0.113,-0.693 0.125,-0.698 0.139,-0.698C0.153,-0.698 0.165,-0.693 0.175,-0.683C0.185,-0.673 0.19,-0.661 0.19,-0.647C0.19,-0.633 0.185,-0.621 0.175,-0.611C0.165,-0.601 0.153,-0.596 0.139,-0.596C0.125,-0.596 0.113,-0.601 0.103,-0.611C0.093,-0.621 0.088,-0.633 0.088,-0.647ZM0.102,-0.286C0.102,-0.316 0.101,-0.347 0.101,-0.381C0.099,-0.413 0.097,-0.444 0.094,-0.473C0.113,-0.47 0.128,-0.468 0.139,-0.468C0.15,-0.468 0.165,-0.47 0.184,-0.473C0.181,-0.444 0.179,-0.413 0.178,-0.381C0.177,-0.347 0.176,-0.316 0.176,-0.286L0.176,-0.182C0.176,-0.152 0.177,-0.121 0.178,-0.088C0.179,-0.055 0.181,-0.025 0.184,0.002C0.169,0.001 0.154,-0 0.139,-0C0.124,-0 0.109,0.001 0.094,0.002C0.097,-0.025 0.099,-0.055 0.101,-0.088C0.101,-0.121 0.102,-0.152 0.102,-0.182L0.102,-0.286Z" style="fill:white;fill-rule:nonzero;"/>
            </g>
            <g transform="matrix(19.0723,0,0,19.0723,323.108,534.195)">
                <path d="M0.167,-0.607C0.165,-0.582 0.164,-0.557 0.163,-0.533C0.162,-0.508 0.16,-0.484 0.159,-0.459C0.166,-0.459 0.18,-0.459 0.2,-0.46C0.22,-0.46 0.242,-0.461 0.265,-0.462C0.264,-0.46 0.264,-0.456 0.264,-0.451L0.264,-0.43C0.264,-0.425 0.264,-0.422 0.265,-0.42C0.256,-0.421 0.247,-0.421 0.238,-0.422C0.229,-0.422 0.219,-0.422 0.208,-0.422L0.159,-0.422C0.158,-0.419 0.158,-0.409 0.157,-0.39C0.156,-0.371 0.155,-0.349 0.154,-0.324C0.153,-0.298 0.153,-0.271 0.153,-0.243C0.152,-0.215 0.152,-0.19 0.152,-0.168C0.152,-0.149 0.153,-0.131 0.154,-0.113C0.155,-0.095 0.158,-0.079 0.163,-0.065C0.168,-0.05 0.176,-0.039 0.187,-0.03C0.198,-0.021 0.213,-0.017 0.233,-0.017C0.238,-0.017 0.245,-0.018 0.255,-0.019C0.264,-0.02 0.271,-0.022 0.278,-0.024L0.278,-0C0.267,0.002 0.254,0.005 0.241,0.008C0.227,0.011 0.214,0.012 0.201,0.012C0.159,0.012 0.128,0.002 0.108,-0.019C0.088,-0.04 0.078,-0.07 0.078,-0.11C0.078,-0.128 0.078,-0.148 0.079,-0.169C0.08,-0.19 0.081,-0.213 0.082,-0.238C0.083,-0.263 0.083,-0.29 0.084,-0.321C0.085,-0.351 0.085,-0.385 0.085,-0.422L0.053,-0.422C0.048,-0.422 0.042,-0.422 0.036,-0.422C0.03,-0.421 0.024,-0.421 0.017,-0.42C0.018,-0.424 0.018,-0.428 0.019,-0.432C0.019,-0.435 0.019,-0.439 0.019,-0.443C0.019,-0.446 0.019,-0.45 0.019,-0.453C0.018,-0.456 0.018,-0.46 0.017,-0.463C0.047,-0.461 0.069,-0.46 0.083,-0.46C0.082,-0.473 0.082,-0.49 0.082,-0.51C0.081,-0.53 0.08,-0.551 0.079,-0.572L0.162,-0.607L0.167,-0.607Z" style="fill:white;fill-rule:nonzero;"/>
            </g>
            <g transform="matrix(19.0723,0,0,19.0723,328.408,534.195)">
                <path d="M0.266,-0.451C0.241,-0.451 0.221,-0.445 0.204,-0.434C0.187,-0.423 0.172,-0.409 0.162,-0.392C0.151,-0.375 0.142,-0.356 0.137,-0.336C0.131,-0.315 0.127,-0.296 0.126,-0.278C0.147,-0.277 0.168,-0.277 0.191,-0.276C0.213,-0.275 0.235,-0.275 0.256,-0.275C0.278,-0.275 0.3,-0.275 0.323,-0.276C0.346,-0.277 0.368,-0.277 0.389,-0.278C0.389,-0.296 0.388,-0.315 0.385,-0.335C0.382,-0.355 0.376,-0.374 0.367,-0.391C0.358,-0.408 0.345,-0.423 0.329,-0.434C0.313,-0.445 0.292,-0.451 0.266,-0.451ZM0.035,-0.22C0.035,-0.302 0.055,-0.366 0.094,-0.413C0.132,-0.46 0.189,-0.483 0.264,-0.483C0.299,-0.483 0.33,-0.478 0.356,-0.467C0.381,-0.456 0.403,-0.441 0.42,-0.423C0.437,-0.404 0.45,-0.383 0.459,-0.358C0.467,-0.333 0.471,-0.307 0.471,-0.279C0.471,-0.272 0.471,-0.266 0.471,-0.26C0.47,-0.253 0.47,-0.247 0.469,-0.24C0.433,-0.241 0.397,-0.241 0.362,-0.242C0.327,-0.243 0.291,-0.243 0.255,-0.243C0.233,-0.243 0.211,-0.243 0.19,-0.242C0.168,-0.241 0.146,-0.241 0.124,-0.24C0.123,-0.237 0.123,-0.232 0.123,-0.225L0.123,-0.212C0.123,-0.186 0.127,-0.162 0.135,-0.139C0.142,-0.116 0.153,-0.097 0.168,-0.081C0.183,-0.064 0.201,-0.051 0.222,-0.042C0.243,-0.032 0.268,-0.027 0.296,-0.027C0.309,-0.027 0.323,-0.029 0.337,-0.033C0.351,-0.036 0.365,-0.041 0.378,-0.048C0.391,-0.054 0.404,-0.061 0.416,-0.07C0.427,-0.079 0.437,-0.088 0.446,-0.098L0.451,-0.095L0.445,-0.046C0.425,-0.03 0.4,-0.016 0.371,-0.005C0.341,0.006 0.31,0.012 0.278,0.012C0.242,0.012 0.209,0.007 0.18,-0.005C0.15,-0.016 0.124,-0.032 0.103,-0.053C0.081,-0.074 0.064,-0.098 0.053,-0.127C0.041,-0.156 0.035,-0.187 0.035,-0.22Z" style="fill:white;fill-rule:nonzero;"/>
            </g>
            <g transform="matrix(19.0723,0,0,19.0723,337.943,534.195)">
                <path d="M0.042,-0.234C0.042,-0.277 0.049,-0.315 0.064,-0.346C0.079,-0.377 0.098,-0.403 0.122,-0.424C0.145,-0.444 0.172,-0.459 0.203,-0.469C0.234,-0.478 0.265,-0.483 0.297,-0.483C0.334,-0.483 0.367,-0.478 0.396,-0.47C0.425,-0.46 0.445,-0.45 0.458,-0.439C0.453,-0.429 0.449,-0.419 0.446,-0.408C0.442,-0.397 0.439,-0.385 0.436,-0.373L0.428,-0.373C0.423,-0.382 0.417,-0.391 0.409,-0.4C0.401,-0.409 0.392,-0.417 0.381,-0.425C0.37,-0.432 0.357,-0.439 0.344,-0.444C0.331,-0.448 0.316,-0.451 0.3,-0.451C0.27,-0.451 0.244,-0.446 0.223,-0.435C0.201,-0.424 0.183,-0.408 0.17,-0.389C0.156,-0.37 0.146,-0.347 0.14,-0.321C0.133,-0.294 0.13,-0.266 0.13,-0.235C0.13,-0.166 0.145,-0.115 0.174,-0.08C0.203,-0.045 0.246,-0.027 0.303,-0.027C0.316,-0.027 0.33,-0.029 0.344,-0.033C0.358,-0.036 0.372,-0.041 0.385,-0.048C0.398,-0.054 0.411,-0.061 0.423,-0.07C0.434,-0.079 0.444,-0.088 0.453,-0.098L0.458,-0.095C0.455,-0.079 0.453,-0.063 0.452,-0.046C0.432,-0.03 0.407,-0.016 0.378,-0.005C0.348,0.006 0.317,0.012 0.285,0.012C0.256,0.012 0.228,0.008 0.199,-0.001C0.169,-0.009 0.143,-0.023 0.12,-0.043C0.097,-0.062 0.078,-0.088 0.064,-0.119C0.049,-0.15 0.042,-0.189 0.042,-0.234Z" style="fill:white;fill-rule:nonzero;"/>
            </g>
            <g transform="matrix(19.0723,0,0,19.0723,347.477,534.195)">
                <path d="M0.167,-0.607C0.165,-0.582 0.164,-0.557 0.163,-0.533C0.162,-0.508 0.16,-0.484 0.159,-0.459C0.166,-0.459 0.18,-0.459 0.2,-0.46C0.22,-0.46 0.242,-0.461 0.265,-0.462C0.264,-0.46 0.264,-0.456 0.264,-0.451L0.264,-0.43C0.264,-0.425 0.264,-0.422 0.265,-0.42C0.256,-0.421 0.247,-0.421 0.238,-0.422C0.229,-0.422 0.219,-0.422 0.208,-0.422L0.159,-0.422C0.158,-0.419 0.158,-0.409 0.157,-0.39C0.156,-0.371 0.155,-0.349 0.154,-0.324C0.153,-0.298 0.153,-0.271 0.153,-0.243C0.152,-0.215 0.152,-0.19 0.152,-0.168C0.152,-0.149 0.153,-0.131 0.154,-0.113C0.155,-0.095 0.158,-0.079 0.163,-0.065C0.168,-0.05 0.176,-0.039 0.187,-0.03C0.198,-0.021 0.213,-0.017 0.233,-0.017C0.238,-0.017 0.245,-0.018 0.255,-0.019C0.264,-0.02 0.271,-0.022 0.278,-0.024L0.278,-0C0.267,0.002 0.254,0.005 0.241,0.008C0.227,0.011 0.214,0.012 0.201,0.012C0.159,0.012 0.128,0.002 0.108,-0.019C0.088,-0.04 0.078,-0.07 0.078,-0.11C0.078,-0.128 0.078,-0.148 0.079,-0.169C0.08,-0.19 0.081,-0.213 0.082,-0.238C0.083,-0.263 0.083,-0.29 0.084,-0.321C0.085,-0.351 0.085,-0.385 0.085,-0.422L0.053,-0.422C0.048,-0.422 0.042,-0.422 0.036,-0.422C0.03,-0.421 0.024,-0.421 0.017,-0.42C0.018,-0.424 0.018,-0.428 0.019,-0.432C0.019,-0.435 0.019,-0.439 0.019,-0.443C0.019,-0.446 0.019,-0.45 0.019,-0.453C0.018,-0.456 0.018,-0.46 0.017,-0.463C0.047,-0.461 0.069,-0.46 0.083,-0.46C0.082,-0.473 0.082,-0.49 0.082,-0.51C0.081,-0.53 0.08,-0.551 0.079,-0.572L0.162,-0.607L0.167,-0.607Z" style="fill:white;fill-rule:nonzero;"/>
            </g>
            <g transform="matrix(19.0723,0,0,19.0723,352.777,534.195)">
                <path d="M0.076,-0.149C0.076,-0.184 0.077,-0.215 0.078,-0.24C0.079,-0.265 0.079,-0.289 0.079,-0.314C0.079,-0.337 0.079,-0.363 0.079,-0.39C0.078,-0.417 0.078,-0.445 0.077,-0.473C0.094,-0.47 0.108,-0.468 0.119,-0.468C0.13,-0.468 0.143,-0.47 0.16,-0.473C0.157,-0.433 0.154,-0.389 0.153,-0.342C0.151,-0.294 0.15,-0.245 0.15,-0.195C0.15,-0.16 0.153,-0.134 0.159,-0.116C0.165,-0.097 0.172,-0.083 0.181,-0.074C0.19,-0.063 0.202,-0.055 0.217,-0.048C0.231,-0.041 0.248,-0.037 0.267,-0.037C0.295,-0.037 0.318,-0.043 0.337,-0.056C0.356,-0.068 0.369,-0.083 0.378,-0.101C0.383,-0.112 0.386,-0.122 0.389,-0.13C0.392,-0.138 0.394,-0.149 0.396,-0.162C0.397,-0.175 0.398,-0.193 0.399,-0.216C0.399,-0.239 0.399,-0.27 0.399,-0.309L0.399,-0.393C0.399,-0.408 0.399,-0.422 0.399,-0.435C0.398,-0.448 0.398,-0.461 0.397,-0.473C0.404,-0.472 0.411,-0.471 0.418,-0.47C0.425,-0.468 0.432,-0.468 0.439,-0.468C0.446,-0.468 0.453,-0.468 0.46,-0.47C0.467,-0.471 0.473,-0.472 0.48,-0.473C0.477,-0.421 0.475,-0.371 0.474,-0.323C0.473,-0.274 0.473,-0.223 0.473,-0.169C0.473,-0.139 0.473,-0.11 0.474,-0.081C0.475,-0.052 0.476,-0.025 0.477,0.002C0.464,0.001 0.451,-0 0.438,-0C0.425,-0 0.412,0.001 0.399,0.002C0.4,-0.004 0.4,-0.01 0.401,-0.017C0.401,-0.024 0.401,-0.031 0.401,-0.038L0.401,-0.081L0.399,-0.081C0.382,-0.049 0.359,-0.025 0.332,-0.011C0.305,0.005 0.275,0.012 0.243,0.012C0.191,0.012 0.15,-0.002 0.121,-0.03C0.091,-0.057 0.076,-0.097 0.076,-0.149Z" style="fill:white;fill-rule:nonzero;"/>
            </g>
            <g transform="matrix(19.0723,0,0,19.0723,363.38,534.195)">
                <path d="M0.305,-0.391C0.302,-0.395 0.295,-0.399 0.286,-0.402C0.276,-0.405 0.266,-0.407 0.256,-0.407C0.24,-0.407 0.226,-0.403 0.213,-0.396C0.2,-0.389 0.19,-0.379 0.181,-0.367C0.172,-0.354 0.166,-0.339 0.161,-0.323C0.156,-0.306 0.154,-0.287 0.154,-0.268L0.154,-0.158C0.154,-0.113 0.154,-0.079 0.155,-0.056C0.155,-0.032 0.156,-0.013 0.158,0.002C0.145,0.001 0.131,-0 0.118,-0C0.103,-0 0.089,0.001 0.076,0.002C0.078,-0.021 0.079,-0.051 0.08,-0.091C0.08,-0.129 0.08,-0.177 0.08,-0.234L0.08,-0.266C0.08,-0.292 0.08,-0.322 0.08,-0.356C0.079,-0.39 0.078,-0.429 0.076,-0.473C0.083,-0.472 0.09,-0.471 0.097,-0.47C0.104,-0.468 0.111,-0.468 0.118,-0.468C0.124,-0.468 0.13,-0.468 0.137,-0.47C0.144,-0.471 0.151,-0.472 0.158,-0.473C0.155,-0.449 0.154,-0.43 0.154,-0.416C0.153,-0.402 0.153,-0.389 0.153,-0.376L0.155,-0.375C0.194,-0.447 0.238,-0.483 0.287,-0.483C0.293,-0.483 0.298,-0.483 0.303,-0.482C0.307,-0.481 0.312,-0.48 0.319,-0.477C0.316,-0.469 0.314,-0.457 0.313,-0.441C0.312,-0.424 0.312,-0.409 0.312,-0.396L0.305,-0.391Z" style="fill:white;fill-rule:nonzero;"/>
            </g>
            <g transform="matrix(19.0723,0,0,19.0723,369.729,534.195)">
                <path d="M0.333,-0.247C0.322,-0.243 0.309,-0.24 0.294,-0.237C0.279,-0.234 0.263,-0.232 0.248,-0.229C0.233,-0.226 0.218,-0.222 0.203,-0.217C0.188,-0.212 0.174,-0.206 0.163,-0.198C0.151,-0.19 0.141,-0.18 0.135,-0.168C0.128,-0.156 0.124,-0.141 0.124,-0.122C0.124,-0.091 0.133,-0.067 0.151,-0.051C0.169,-0.035 0.189,-0.027 0.211,-0.027C0.236,-0.027 0.26,-0.034 0.281,-0.048C0.302,-0.062 0.318,-0.078 0.329,-0.097L0.333,-0.247ZM0.086,-0.425C0.116,-0.448 0.144,-0.463 0.169,-0.471C0.194,-0.479 0.22,-0.483 0.247,-0.483C0.271,-0.483 0.293,-0.48 0.313,-0.473C0.333,-0.466 0.35,-0.456 0.364,-0.443C0.378,-0.43 0.389,-0.414 0.397,-0.396C0.405,-0.377 0.409,-0.357 0.409,-0.335C0.409,-0.297 0.408,-0.259 0.407,-0.222C0.406,-0.184 0.405,-0.144 0.405,-0.102C0.405,-0.094 0.405,-0.086 0.406,-0.077C0.406,-0.068 0.407,-0.059 0.41,-0.053C0.413,-0.046 0.417,-0.04 0.422,-0.035C0.427,-0.03 0.434,-0.028 0.444,-0.028C0.447,-0.028 0.451,-0.028 0.455,-0.029C0.458,-0.029 0.462,-0.03 0.465,-0.032L0.465,-0.01C0.458,-0.007 0.448,-0.004 0.438,-0.002C0.427,0 0.414,0.001 0.401,0.001C0.38,0.001 0.363,-0.005 0.352,-0.016C0.341,-0.027 0.334,-0.041 0.332,-0.058C0.308,-0.034 0.284,-0.016 0.261,-0.005C0.238,0.006 0.209,0.012 0.175,0.012C0.158,0.012 0.142,0.01 0.126,0.005C0.11,0 0.096,-0.007 0.084,-0.018C0.071,-0.029 0.061,-0.042 0.054,-0.057C0.046,-0.071 0.042,-0.089 0.042,-0.108C0.042,-0.148 0.055,-0.179 0.08,-0.201C0.105,-0.223 0.139,-0.238 0.183,-0.245C0.219,-0.251 0.247,-0.256 0.268,-0.261C0.288,-0.265 0.303,-0.269 0.313,-0.274C0.322,-0.279 0.328,-0.284 0.33,-0.291C0.332,-0.297 0.333,-0.305 0.333,-0.315C0.333,-0.332 0.331,-0.348 0.327,-0.363C0.323,-0.378 0.317,-0.392 0.308,-0.403C0.299,-0.414 0.288,-0.424 0.274,-0.431C0.26,-0.438 0.243,-0.441 0.223,-0.441C0.196,-0.441 0.171,-0.435 0.149,-0.423C0.126,-0.411 0.108,-0.394 0.097,-0.373L0.086,-0.373L0.086,-0.425Z" style="fill:white;fill-rule:nonzero;"/>
            </g>
            <g transform="matrix(19.0723,0,0,19.0723,379.263,534.195)">
                <path d="M0.102,-0.464C0.102,-0.487 0.102,-0.511 0.102,-0.538C0.101,-0.565 0.101,-0.591 0.1,-0.617C0.099,-0.643 0.098,-0.668 0.098,-0.692C0.096,-0.715 0.095,-0.735 0.094,-0.752C0.113,-0.749 0.128,-0.747 0.139,-0.747C0.15,-0.747 0.165,-0.749 0.184,-0.752C0.183,-0.735 0.182,-0.715 0.181,-0.692C0.18,-0.668 0.179,-0.643 0.178,-0.617C0.177,-0.591 0.177,-0.565 0.177,-0.538C0.176,-0.511 0.176,-0.487 0.176,-0.464L0.176,-0.283C0.176,-0.26 0.176,-0.236 0.177,-0.209C0.177,-0.182 0.177,-0.156 0.178,-0.13C0.179,-0.104 0.18,-0.079 0.181,-0.056C0.182,-0.033 0.183,-0.013 0.184,0.002C0.169,0.001 0.154,-0 0.139,-0C0.124,-0 0.109,0.001 0.094,0.002C0.095,-0.013 0.096,-0.033 0.098,-0.056C0.098,-0.079 0.099,-0.104 0.1,-0.13C0.101,-0.156 0.101,-0.182 0.102,-0.209C0.102,-0.236 0.102,-0.26 0.102,-0.283L0.102,-0.464Z" style="fill:white;fill-rule:nonzero;"/>
            </g>
            <g transform="matrix(19.0723,0,0,19.0723,265.348,553.747)">
                <path d="M0.671,-0.563C0.661,-0.575 0.649,-0.587 0.634,-0.599C0.619,-0.611 0.602,-0.622 0.584,-0.631C0.565,-0.64 0.545,-0.647 0.523,-0.653C0.5,-0.658 0.476,-0.661 0.451,-0.661C0.41,-0.661 0.371,-0.655 0.336,-0.642C0.3,-0.629 0.269,-0.61 0.243,-0.584C0.216,-0.557 0.196,-0.524 0.181,-0.484C0.166,-0.443 0.158,-0.395 0.158,-0.34C0.158,-0.291 0.165,-0.247 0.178,-0.208C0.191,-0.169 0.211,-0.135 0.237,-0.109C0.262,-0.082 0.294,-0.061 0.331,-0.046C0.368,-0.031 0.409,-0.024 0.456,-0.024C0.47,-0.024 0.485,-0.025 0.5,-0.026C0.515,-0.027 0.53,-0.029 0.545,-0.032C0.559,-0.035 0.572,-0.038 0.585,-0.042C0.597,-0.046 0.607,-0.051 0.616,-0.056C0.617,-0.076 0.617,-0.096 0.618,-0.116C0.618,-0.136 0.618,-0.156 0.618,-0.177C0.618,-0.2 0.618,-0.224 0.617,-0.247C0.616,-0.27 0.614,-0.293 0.613,-0.314C0.63,-0.311 0.646,-0.309 0.661,-0.309C0.668,-0.309 0.676,-0.309 0.683,-0.31C0.69,-0.311 0.697,-0.312 0.704,-0.314C0.703,-0.299 0.702,-0.274 0.701,-0.242C0.7,-0.209 0.7,-0.165 0.7,-0.111C0.7,-0.098 0.7,-0.084 0.701,-0.071C0.701,-0.057 0.701,-0.043 0.701,-0.03C0.687,-0.025 0.67,-0.019 0.649,-0.014C0.627,-0.008 0.605,-0.003 0.582,0.001C0.558,0.004 0.534,0.008 0.511,0.011C0.487,0.014 0.465,0.015 0.446,0.015C0.387,0.015 0.333,0.008 0.286,-0.007C0.238,-0.021 0.197,-0.043 0.164,-0.073C0.131,-0.103 0.105,-0.14 0.087,-0.185C0.069,-0.23 0.06,-0.281 0.06,-0.34C0.06,-0.397 0.069,-0.447 0.088,-0.492C0.107,-0.536 0.133,-0.573 0.167,-0.604C0.201,-0.635 0.242,-0.658 0.291,-0.674C0.339,-0.69 0.392,-0.698 0.451,-0.698C0.485,-0.698 0.515,-0.696 0.542,-0.693C0.568,-0.689 0.591,-0.684 0.612,-0.678C0.632,-0.672 0.65,-0.666 0.665,-0.659C0.68,-0.652 0.694,-0.646 0.706,-0.64C0.701,-0.631 0.696,-0.619 0.692,-0.604C0.687,-0.589 0.684,-0.576 0.683,-0.563L0.671,-0.563Z" style="fill:white;fill-rule:nonzero;"/>
            </g>
            <g transform="matrix(19.0723,0,0,19.0723,280.188,553.747)">
                <path d="M0.102,-0.464C0.102,-0.487 0.102,-0.511 0.102,-0.538C0.101,-0.565 0.101,-0.591 0.1,-0.617C0.099,-0.643 0.098,-0.668 0.098,-0.692C0.096,-0.715 0.095,-0.735 0.094,-0.752C0.113,-0.749 0.128,-0.747 0.139,-0.747C0.15,-0.747 0.165,-0.749 0.184,-0.752C0.183,-0.735 0.182,-0.715 0.181,-0.692C0.18,-0.668 0.179,-0.643 0.178,-0.617C0.177,-0.591 0.177,-0.565 0.177,-0.538C0.176,-0.511 0.176,-0.487 0.176,-0.464L0.176,-0.283C0.176,-0.26 0.176,-0.236 0.177,-0.209C0.177,-0.182 0.177,-0.156 0.178,-0.13C0.179,-0.104 0.18,-0.079 0.181,-0.056C0.182,-0.033 0.183,-0.013 0.184,0.002C0.169,0.001 0.154,-0 0.139,-0C0.124,-0 0.109,0.001 0.094,0.002C0.095,-0.013 0.096,-0.033 0.098,-0.056C0.098,-0.079 0.099,-0.104 0.1,-0.13C0.101,-0.156 0.101,-0.182 0.102,-0.209C0.102,-0.236 0.102,-0.26 0.102,-0.283L0.102,-0.464Z" style="fill:white;fill-rule:nonzero;"/>
            </g>
            <g transform="matrix(19.0723,0,0,19.0723,285.492,553.747)">
                <path d="M0.333,-0.247C0.322,-0.243 0.309,-0.24 0.294,-0.237C0.279,-0.234 0.263,-0.232 0.248,-0.229C0.233,-0.226 0.218,-0.222 0.203,-0.217C0.188,-0.212 0.174,-0.206 0.163,-0.198C0.151,-0.19 0.141,-0.18 0.135,-0.168C0.128,-0.156 0.124,-0.141 0.124,-0.122C0.124,-0.091 0.133,-0.067 0.151,-0.051C0.169,-0.035 0.189,-0.027 0.211,-0.027C0.236,-0.027 0.26,-0.034 0.281,-0.048C0.302,-0.062 0.318,-0.078 0.329,-0.097L0.333,-0.247ZM0.086,-0.425C0.116,-0.448 0.144,-0.463 0.169,-0.471C0.194,-0.479 0.22,-0.483 0.247,-0.483C0.271,-0.483 0.293,-0.48 0.313,-0.473C0.333,-0.466 0.35,-0.456 0.364,-0.443C0.378,-0.43 0.389,-0.414 0.397,-0.396C0.405,-0.377 0.409,-0.357 0.409,-0.335C0.409,-0.297 0.408,-0.259 0.407,-0.222C0.406,-0.184 0.405,-0.144 0.405,-0.102C0.405,-0.094 0.405,-0.086 0.406,-0.077C0.406,-0.068 0.407,-0.059 0.41,-0.053C0.413,-0.046 0.417,-0.04 0.422,-0.035C0.427,-0.03 0.434,-0.028 0.444,-0.028C0.447,-0.028 0.451,-0.028 0.455,-0.029C0.458,-0.029 0.462,-0.03 0.465,-0.032L0.465,-0.01C0.458,-0.007 0.448,-0.004 0.438,-0.002C0.427,0 0.414,0.001 0.401,0.001C0.38,0.001 0.363,-0.005 0.352,-0.016C0.341,-0.027 0.334,-0.041 0.332,-0.058C0.308,-0.034 0.284,-0.016 0.261,-0.005C0.238,0.006 0.209,0.012 0.175,0.012C0.158,0.012 0.142,0.01 0.126,0.005C0.11,0 0.096,-0.007 0.084,-0.018C0.071,-0.029 0.061,-0.042 0.054,-0.057C0.046,-0.071 0.042,-0.089 0.042,-0.108C0.042,-0.148 0.055,-0.179 0.08,-0.201C0.105,-0.223 0.139,-0.238 0.183,-0.245C0.219,-0.251 0.247,-0.256 0.268,-0.261C0.288,-0.265 0.303,-0.269 0.313,-0.274C0.322,-0.279 0.328,-0.284 0.33,-0.291C0.332,-0.297 0.333,-0.305 0.333,-0.315C0.333,-0.332 0.331,-0.348 0.327,-0.363C0.323,-0.378 0.317,-0.392 0.308,-0.403C0.299,-0.414 0.288,-0.424 0.274,-0.431C0.26,-0.438 0.243,-0.441 0.223,-0.441C0.196,-0.441 0.171,-0.435 0.149,-0.423C0.126,-0.411 0.108,-0.394 0.097,-0.373L0.086,-0.373L0.086,-0.425Z" style="fill:white;fill-rule:nonzero;"/>
            </g>
            <g transform="matrix(19.0723,0,0,19.0723,295.03,553.747)">
                <path d="M0.034,-0.009C0.063,-0.044 0.092,-0.081 0.123,-0.12C0.153,-0.159 0.182,-0.198 0.211,-0.236C0.24,-0.274 0.267,-0.31 0.292,-0.344C0.317,-0.378 0.338,-0.407 0.356,-0.431C0.351,-0.431 0.338,-0.431 0.317,-0.43C0.295,-0.429 0.27,-0.428 0.242,-0.427C0.214,-0.425 0.186,-0.423 0.157,-0.422C0.128,-0.42 0.104,-0.418 0.085,-0.416C0.087,-0.425 0.088,-0.435 0.088,-0.444C0.088,-0.453 0.087,-0.462 0.085,-0.473C0.106,-0.471 0.138,-0.47 0.179,-0.469C0.22,-0.468 0.272,-0.468 0.335,-0.468L0.373,-0.468C0.385,-0.468 0.396,-0.468 0.406,-0.469L0.466,-0.473L0.466,-0.458C0.439,-0.423 0.41,-0.385 0.379,-0.344C0.347,-0.302 0.316,-0.261 0.286,-0.222C0.256,-0.182 0.229,-0.146 0.204,-0.113C0.179,-0.08 0.161,-0.054 0.148,-0.037C0.175,-0.037 0.201,-0.037 0.224,-0.038C0.247,-0.038 0.27,-0.039 0.293,-0.04C0.316,-0.041 0.341,-0.042 0.368,-0.044C0.395,-0.045 0.426,-0.048 0.461,-0.051C0.458,-0.043 0.457,-0.034 0.457,-0.023C0.457,-0.012 0.458,-0.004 0.461,0.002C0.419,0.001 0.377,-0 0.336,-0L0.123,-0C0.093,-0 0.064,0.001 0.034,0.002L0.034,-0.009Z" style="fill:white;fill-rule:nonzero;"/>
            </g>
            <g transform="matrix(19.0723,0,0,19.0723,304.568,553.747)">
                <path d="M0.088,-0.647C0.088,-0.661 0.093,-0.673 0.103,-0.683C0.113,-0.693 0.125,-0.698 0.139,-0.698C0.153,-0.698 0.165,-0.693 0.175,-0.683C0.185,-0.673 0.19,-0.661 0.19,-0.647C0.19,-0.633 0.185,-0.621 0.175,-0.611C0.165,-0.601 0.153,-0.596 0.139,-0.596C0.125,-0.596 0.113,-0.601 0.103,-0.611C0.093,-0.621 0.088,-0.633 0.088,-0.647ZM0.102,-0.286C0.102,-0.316 0.101,-0.347 0.101,-0.381C0.099,-0.413 0.097,-0.444 0.094,-0.473C0.113,-0.47 0.128,-0.468 0.139,-0.468C0.15,-0.468 0.165,-0.47 0.184,-0.473C0.181,-0.444 0.179,-0.413 0.178,-0.381C0.177,-0.347 0.176,-0.316 0.176,-0.286L0.176,-0.182C0.176,-0.152 0.177,-0.121 0.178,-0.088C0.179,-0.055 0.181,-0.025 0.184,0.002C0.169,0.001 0.154,-0 0.139,-0C0.124,-0 0.109,0.001 0.094,0.002C0.097,-0.025 0.099,-0.055 0.101,-0.088C0.101,-0.121 0.102,-0.152 0.102,-0.182L0.102,-0.286Z" style="fill:white;fill-rule:nonzero;"/>
            </g>
            <g transform="matrix(19.0723,0,0,19.0723,309.872,553.747)">
                <path d="M0.402,-0.279C0.402,-0.329 0.392,-0.367 0.373,-0.393C0.354,-0.418 0.327,-0.431 0.293,-0.431C0.246,-0.431 0.212,-0.417 0.191,-0.388C0.169,-0.359 0.158,-0.319 0.158,-0.267L0.158,-0.182C0.158,-0.152 0.159,-0.121 0.16,-0.088C0.161,-0.055 0.163,-0.025 0.166,0.002C0.151,0.001 0.136,-0 0.121,-0C0.106,-0 0.091,0.001 0.076,0.002C0.079,-0.025 0.082,-0.055 0.083,-0.088C0.084,-0.121 0.084,-0.152 0.084,-0.182L0.084,-0.286C0.084,-0.316 0.084,-0.347 0.083,-0.381C0.082,-0.413 0.079,-0.444 0.076,-0.473C0.095,-0.47 0.11,-0.468 0.121,-0.468C0.126,-0.468 0.132,-0.468 0.139,-0.47C0.145,-0.471 0.152,-0.472 0.161,-0.473C0.159,-0.446 0.158,-0.42 0.158,-0.393L0.16,-0.393C0.179,-0.422 0.201,-0.444 0.227,-0.46C0.253,-0.475 0.284,-0.483 0.32,-0.483C0.339,-0.483 0.358,-0.48 0.377,-0.475C0.396,-0.47 0.413,-0.46 0.428,-0.448C0.443,-0.435 0.456,-0.417 0.466,-0.395C0.475,-0.372 0.48,-0.344 0.48,-0.309C0.48,-0.28 0.479,-0.251 0.478,-0.221C0.477,-0.19 0.476,-0.158 0.476,-0.124L0.476,-0.059C0.476,-0.048 0.476,-0.038 0.477,-0.028C0.477,-0.017 0.477,-0.007 0.478,0.002C0.465,0.001 0.451,-0 0.436,-0C0.422,-0 0.408,0.001 0.395,0.002C0.396,-0.033 0.398,-0.068 0.4,-0.105C0.401,-0.142 0.402,-0.179 0.402,-0.218L0.402,-0.279Z" style="fill:white;fill-rule:nonzero;"/>
            </g>
            <g transform="matrix(19.0723,0,0,19.0723,320.478,553.747)">
                <path d="M0.405,0.108C0.405,0.068 0.393,0.04 0.37,0.024C0.347,0.008 0.308,-0 0.254,-0C0.204,-0 0.165,0.008 0.138,0.025C0.111,0.041 0.097,0.07 0.097,0.113C0.097,0.136 0.101,0.155 0.109,0.171C0.116,0.187 0.127,0.2 0.14,0.21C0.153,0.22 0.168,0.227 0.186,0.232C0.204,0.237 0.223,0.239 0.244,0.239C0.264,0.239 0.284,0.236 0.303,0.231C0.322,0.226 0.339,0.218 0.355,0.207C0.37,0.196 0.382,0.183 0.391,0.167C0.4,0.15 0.405,0.131 0.405,0.108ZM0.351,-0.325C0.351,-0.367 0.341,-0.399 0.321,-0.421C0.301,-0.443 0.275,-0.454 0.242,-0.454C0.206,-0.454 0.178,-0.442 0.158,-0.418C0.138,-0.393 0.128,-0.361 0.128,-0.32C0.128,-0.278 0.137,-0.245 0.156,-0.221C0.174,-0.196 0.202,-0.184 0.241,-0.184C0.26,-0.184 0.277,-0.188 0.291,-0.196C0.304,-0.203 0.316,-0.214 0.325,-0.227C0.334,-0.24 0.34,-0.255 0.345,-0.272C0.349,-0.289 0.351,-0.306 0.351,-0.325ZM0.05,-0.32C0.05,-0.348 0.055,-0.372 0.065,-0.393C0.075,-0.413 0.089,-0.43 0.107,-0.443C0.124,-0.456 0.145,-0.466 0.168,-0.473C0.191,-0.48 0.215,-0.483 0.241,-0.483C0.254,-0.483 0.266,-0.483 0.278,-0.482C0.289,-0.481 0.304,-0.48 0.322,-0.479C0.337,-0.478 0.351,-0.477 0.363,-0.476C0.375,-0.475 0.385,-0.475 0.392,-0.475C0.429,-0.475 0.456,-0.477 0.473,-0.48C0.472,-0.477 0.472,-0.473 0.472,-0.47C0.471,-0.466 0.471,-0.462 0.471,-0.459C0.471,-0.456 0.471,-0.452 0.472,-0.449C0.472,-0.445 0.472,-0.441 0.473,-0.438C0.454,-0.439 0.435,-0.441 0.417,-0.443C0.398,-0.444 0.38,-0.445 0.362,-0.446L0.36,-0.444C0.381,-0.433 0.397,-0.415 0.41,-0.392C0.423,-0.368 0.429,-0.343 0.429,-0.318C0.429,-0.268 0.412,-0.229 0.379,-0.201C0.345,-0.172 0.3,-0.158 0.243,-0.158C0.234,-0.158 0.225,-0.158 0.216,-0.159C0.207,-0.16 0.197,-0.16 0.188,-0.16C0.176,-0.16 0.165,-0.156 0.155,-0.147C0.144,-0.138 0.139,-0.127 0.139,-0.114C0.139,-0.097 0.143,-0.084 0.152,-0.076C0.16,-0.068 0.175,-0.064 0.198,-0.063C0.217,-0.062 0.235,-0.062 0.253,-0.062C0.271,-0.061 0.289,-0.061 0.308,-0.06C0.339,-0.059 0.365,-0.056 0.387,-0.049C0.408,-0.042 0.426,-0.033 0.44,-0.022C0.453,-0.011 0.463,0.002 0.47,0.017C0.476,0.032 0.479,0.048 0.479,0.065C0.479,0.088 0.475,0.112 0.466,0.136C0.456,0.16 0.443,0.182 0.424,0.201C0.405,0.22 0.38,0.236 0.35,0.249C0.32,0.262 0.284,0.268 0.242,0.268C0.177,0.268 0.126,0.255 0.089,0.23C0.052,0.204 0.033,0.169 0.033,0.124C0.033,0.107 0.036,0.091 0.043,0.076C0.049,0.061 0.057,0.048 0.067,0.037C0.077,0.026 0.088,0.017 0.101,0.01C0.114,0.003 0.127,-0.002 0.14,-0.005L0.14,-0.007C0.119,-0.013 0.104,-0.023 0.093,-0.037C0.082,-0.051 0.077,-0.068 0.077,-0.087C0.077,-0.098 0.079,-0.109 0.084,-0.118C0.088,-0.127 0.093,-0.136 0.1,-0.143C0.107,-0.15 0.114,-0.156 0.123,-0.161C0.132,-0.166 0.14,-0.169 0.148,-0.17L0.148,-0.172C0.117,-0.185 0.093,-0.204 0.076,-0.229C0.059,-0.253 0.05,-0.283 0.05,-0.32Z" style="fill:white;fill-rule:nonzero;"/>
            </g>
        </g>
        <g transform="matrix(0.371796,0,0,0.371796,52.1599,-17.0595)">
            <rect x="212.052" y="352.7" width="5" height="172.015" style="fill:white;"/>
        </g>
        <g transform="matrix(0.371796,0,0,0.371796,52.1599,-113.954)">
            <path d="M382.972,613.104C380.27,580.715 364.802,557.03 344.233,542.905C315.21,522.975 275.981,522.107 247.702,542.722C228.92,556.415 214.902,579.598 212.061,613.101C211.944,614.475 212.966,615.686 214.34,615.803C215.715,615.92 216.926,614.898 217.043,613.523C218.605,595.105 223.678,579.951 231.137,567.94C236.533,559.251 243.179,552.207 250.648,546.762C277.235,527.381 314.116,528.289 341.402,547.027C360.872,560.397 375.432,582.861 377.989,613.52C378.104,614.895 379.313,615.918 380.688,615.803C382.063,615.689 383.087,614.479 382.972,613.104Z" style="fill:white;"/>
        </g>
        <g transform="matrix(0.37165,-0.0104203,-0.0104203,-0.37165,56.7796,313.061)">
            <path d="M380.482,348.85C380.482,348.85 375.482,348.899 375.486,349.056L380.482,527.25L385.48,527.11L380.482,348.85Z" style="fill:white;"/>
        </g>
        <g transform="matrix(0.371796,0,0,0.371796,52.1599,-6.70685)">
            <rect x="239.49" y="352.7" width="2" height="144.17" style="fill:white;"/>
        </g>
        <g transform="matrix(0.371796,0,0,0.371796,52.1599,-6.99016)">
            <rect x="353.161" y="353.081" width="2" height="144.17" style="fill:white;"/>
        </g>
        <g transform="matrix(0.371796,0,0,0.371796,52.1599,-17.0591)">
            <path d="M379.237,437.707L215.795,437.707C215.244,437.707 214.795,438.155 214.795,438.707C214.795,439.259 215.244,439.707 215.795,439.707L379.237,439.707C379.789,439.707 380.237,439.259 380.237,438.707C380.237,438.155 379.789,437.707 379.237,437.707Z" style="fill:white;"/>
        </g>
        <g transform="matrix(1,0,0,1,2.09111,-236.272)">
            <path d="M259.541,333.28C258.785,333.268 258.151,333.406 257.638,333.697C257.126,333.988 255.886,335.059 253.918,336.911L254.795,337.548C255.954,336.242 256.866,335.62 257.533,335.683C258.2,335.745 258.597,336.679 258.725,338.487L252.09,347.44L250.003,347.407L246.158,350.249L246.406,350.642C248.014,350.369 249.395,350.287 250.548,350.397C248.811,352.967 247.547,354.761 246.756,355.782C245.966,356.801 244.939,357.885 243.679,359.034L243.749,359.581L251.098,359.678L253.695,357.011L247.759,356.879C248.904,356.429 250.739,354.302 253.262,350.498L260.357,350.454L261.736,349.58C261.881,350.089 262.023,350.575 262.16,351.04C263.337,355.019 264.213,357.432 264.788,358.279C265.431,359.224 266.188,359.846 267.06,360.146L269.66,357.83C267.875,356.697 266.145,352.586 264.472,345.494C262.799,338.402 261.751,334.593 261.331,334.067C260.911,333.542 260.314,333.278 259.541,333.28ZM261.255,347.742L254.795,347.62L259.541,340.74L261.255,347.742Z" style="fill:white;fill-rule:nonzero;"/>
        </g>
        <g transform="matrix(1,0,0,1,2.09111,-224.345)">
            <path d="M290.382,340.675C289.792,340.899 289.24,341.149 288.727,341.422C288.214,341.696 287.763,341.989 287.376,342.301C286.988,342.612 286.674,342.945 286.435,343.295C286.194,343.646 286.051,344.014 286.003,344.4C285.951,344.834 286,345.242 286.15,345.622C286.301,346.004 286.54,346.335 286.867,346.619C287.193,346.902 287.609,347.128 288.112,347.297C288.616,347.466 289.195,347.556 289.848,347.566C290.737,347.58 291.601,347.453 292.44,347.184C293.279,346.916 294.09,346.582 294.872,346.183C294.413,345.781 293.977,345.356 293.564,344.906C293.151,344.456 292.758,343.997 292.387,343.528C292.015,343.059 291.665,342.582 291.334,342.098C291.004,341.613 290.687,341.139 290.382,340.675ZM293.03,338.941C293.643,338.732 294.216,338.516 294.75,338.291C295.285,338.066 295.758,337.821 296.168,337.559C296.578,337.295 296.909,337.002 297.163,336.68C297.417,336.357 297.567,336 297.616,335.605C297.663,335.22 297.635,334.875 297.53,334.571C297.426,334.267 297.267,334.007 297.05,333.79C296.834,333.573 296.573,333.406 296.265,333.289C295.958,333.17 295.619,333.108 295.247,333.103C294.831,333.096 294.439,333.166 294.071,333.314C293.703,333.461 293.378,333.656 293.095,333.897C292.812,334.138 292.579,334.408 292.396,334.707C292.213,335.006 292.103,335.305 292.067,335.602C292.008,336.084 292.064,336.617 292.236,337.2C292.407,337.783 292.672,338.363 293.03,338.941ZM302.709,340.181C302.504,340.75 302.276,341.258 302.024,341.705C301.772,342.153 301.485,342.573 301.16,342.967C300.835,343.36 300.468,343.743 300.055,344.115C299.644,344.487 299.181,344.879 298.669,345.289C299.459,345.93 300.218,346.44 300.944,346.817C301.671,347.196 302.361,347.39 303.014,347.4C303.858,347.413 304.593,347.306 305.219,347.079C305.844,346.851 306.373,346.439 306.808,345.841L307.428,346.021C307.218,346.541 306.922,346.999 306.542,347.396C306.161,347.792 305.711,348.126 305.193,348.395C304.676,348.665 304.098,348.866 303.462,348.996C302.825,349.127 302.148,349.187 301.426,349.176C300.503,349.161 299.578,348.959 298.65,348.569C297.721,348.18 296.828,347.665 295.971,347.023C294.793,347.617 293.531,348.094 292.184,348.455C290.837,348.816 289.41,348.986 287.901,348.962C286.843,348.945 285.952,348.846 285.23,348.665C284.508,348.485 283.929,348.237 283.493,347.925C283.057,347.612 282.755,347.241 282.588,346.811C282.421,346.381 282.368,345.909 282.431,345.394C282.52,344.662 282.794,344.016 283.251,343.456C283.708,342.895 284.283,342.395 284.974,341.955C285.665,341.515 286.436,341.126 287.29,340.789C288.143,340.452 289.015,340.141 289.907,339.858C289.521,339.143 289.225,338.485 289.022,337.886C288.819,337.287 288.742,336.782 288.792,336.372C288.857,335.842 289.041,335.329 289.343,334.834C289.646,334.339 290.066,333.903 290.603,333.525C291.139,333.146 291.788,332.847 292.548,332.625C293.308,332.403 294.172,332.3 295.141,332.315C295.861,332.327 296.53,332.412 297.148,332.571C297.765,332.73 298.294,332.955 298.732,333.249C299.17,333.542 299.501,333.897 299.727,334.316C299.952,334.734 300.033,335.205 299.969,335.727C299.906,336.25 299.675,336.705 299.278,337.094C298.881,337.483 298.382,337.829 297.781,338.134C297.18,338.439 296.507,338.714 295.761,338.959C295.014,339.205 294.26,339.447 293.498,339.685C293.986,340.49 294.597,341.292 295.328,342.089C296.06,342.886 296.859,343.669 297.723,344.44C298.947,343.557 299.885,342.738 300.535,341.983C301.185,341.228 301.636,340.567 301.885,339.999L302.709,340.181Z" style="fill:white;fill-rule:nonzero;"/>
        </g>
        <g transform="matrix(1,0,0,1,2.09111,-238.05)">
            <path d="M321.523,335.517C322.04,336.058 322.22,337.126 322.065,338.721C320.325,351.249 319.565,358.002 319.786,358.979C320.006,359.957 320.905,360.752 322.48,361.365L327.519,358.734L327.295,358.184C325.737,358.859 324.918,358.535 324.836,357.209C324.755,355.884 325.152,352.348 326.026,346.603L339.32,346.499L339.838,343.921L328.524,344.036L326.17,345.428L327.01,337.097C327.137,335.263 326.718,334.079 325.754,333.546L321.523,335.517ZM339.255,335.798C339.772,336.339 339.952,337.407 339.796,339.002C338.97,344.948 338.365,349.594 337.981,352.938C337.556,356.639 337.401,358.747 337.517,359.26C337.738,360.238 338.636,361.033 340.212,361.646L345.25,359.015L345.026,358.465C343.468,359.14 342.649,358.816 342.567,357.49C342.486,356.165 343.211,349.461 344.742,337.378C344.868,335.544 344.449,334.36 343.485,333.827L339.255,335.798Z" style="fill:white;fill-rule:nonzero;"/>
        </g>
    </g>
</svg>
